<svg xmlns="http://www.w3.org/2000/svg" width="268" height="127" viewBox="0 0 268 127"><g><g><g><g><g><g><g><path fill="#967f30" d="M33.294 92.337a6.083 6.083 0 0 1 6.54 6.139 6.004 6.004 0 0 1-6.392 6.1 7.469 7.469 0 0 1-1.744-.237l-.012-.014a5.276 5.276 0 0 1-3.463-4.652h-.034v-.37a5.704 5.704 0 0 1 0-.614h9.53v-.243a4.719 4.719 0 0 0-4.71-5.075 3.516 3.516 0 0 0-3.728 2.397h-.162l-.064-2.631h.161c.073.026.14.064.2.113a9.233 9.233 0 0 1 3.86-.92zm234.355.28v.22c-.558.224-.882.534-.882 1.453v8.62a1.08 1.08 0 0 0 .882 1.213v.223h-3.616v-.226c.571-.105.96-.638.886-1.213v-8.62c0-.945-.288-1.213-.886-1.454v-.22zm-15.208 8.288h.162a4.014 4.014 0 0 0 4.255 2.696c1.577 0 3.35-.685 3.35-2.27 0-1.357-1.424-1.777-3.01-2.19-2.122-.55-4.46-1.13-4.46-3.517 0-2.252 2.413-3.294 4.773-3.294a5.862 5.862 0 0 1 3.15.774c.076-.03.161-.043.418-.14h.162v2.584h-.162c-.218-1.906-2.544-2.188-3.6-2.188-1.513 0-2.894.596-2.894 1.906 0 .958 1.918 1.433 2.801 1.67 2.123.55 4.664 1.354 4.664 4.11 0 2.728-2.774 3.671-5.417 3.61a6.784 6.784 0 0 1-4.18-1.375zm-9.866-1.527h4.2l-2.066-4.699zm5.372 2.663l-.717-1.616h-5.148l-1.048 2.296c-.348.807.353 1.218.84 1.387v.223h-3.503v-.211a3.454 3.454 0 0 1-.073-.033c.415-.154.974-.48 1.524-1.638l4.15-9.012c-.068-.347-.76-.583-.95-.6v-.219h2.658l4.511 9.943c.287.72.864 1.287 1.59 1.56v.223h-4.39v-.224c.395-.152 1.17-.585.868-1.369-.087-.237-.192-.455-.303-.706zm-9.576 2.29v.011h-2.826l-4.103-5.169-1.215 1.385v2.287c-.08.596.315 1.153.904 1.275v.222h-3.633v-.222c.58-.136.965-.684.897-1.275v-8.562c0-.944-.3-1.213-.897-1.453v-.22l3.633.002v.22a1.292 1.292 0 0 0-.904 1.453V99l4.652-5.169a.13.13 0 0 0 .045-.079c.383-.426.15-.853-.407-.916v-.22h3.158v.22a5.547 5.547 0 0 0-1.723 1.386l-3.186 3.517 4.082 5.117c.36.538.862.964 1.45 1.231a3.082 3.082 0 0 1-.091.033v.211zm-14.476-14.395a.969.969 0 0 1 .234.72.96.96 0 0 1-.902 1.059.969.969 0 0 1-.9-1.074.932.932 0 0 1 .889-1.037.97.97 0 0 1 .679.332zm1.343 2.676v.22c-.573.224-.888.534-.888 1.453v8.62a1.076 1.076 0 0 0 .888 1.213v.223h-3.621v-.221c.57-.107.957-.639.885-1.213v-8.62c0-.945-.29-1.213-.885-1.454v-.22zm-5.57 11.726h-8.603v-.218a1.17 1.17 0 0 0 .876-1.275v-8.562c0-.944-.28-1.213-.876-1.453v-.22h3.61v.22c-.563.224-.882.534-.882 1.453v8.496c0 .425.147.538.39.538h4.06c.712 0 1.374-.637 1.755-1.625h.162zm-19-1.36c.017.16.14.3.238.3h3.995a2.12 2.12 0 0 0 2.046-2.363c0-1.181-.609-2.33-1.846-2.33h-4.433zm0-9.328v3.893h3.755a1.743 1.743 0 0 0 1.91-1.969c0-1.688-1.088-1.924-1.977-1.924zm-2.746 10.688v-.218c.58-.209.897-.501.897-1.403v-8.429c0-.945-.323-1.227-.897-1.454v-.22h6.686c1.583 0 3.637.485 3.637 2.908a3.02 3.02 0 0 1-1.083 2.367 3.157 3.157 0 0 1 1.926 3.022 3.636 3.636 0 0 1-4.063 3.423zm-2.676-5.688c0 4.017-2.423 5.988-4.889 5.988-2.499 0-5.007-2.051-5.007-6.07v-4.286c0-.93-.306-1.213-.898-1.454v-.22h3.715v.22c-.569.169-.934.72-.867 1.31v4.224c0 3.436 1.683 5.17 3.429 5.17 1.662 0 3.302-1.616 3.302-4.855v-4.392c0-.929-.297-1.213-.87-1.454v-.22h2.99v.22c-.595.225-.897.507-.897 1.454zm-18.86-5.029c-.323 0-.56.03-.56.566v3.794h3.27a1.968 1.968 0 0 0 1.94-2.177 1.97 1.97 0 0 0-1.94-2.175zm-2.4.662c0-.944-.298-1.227-.882-1.453v-.22h6.287c2.532 0 3.772 1.399 3.772 3.182 0 1.75-1.259 3.184-3.772 3.184h-3.575v3.735c0 .903.303 1.194.893 1.402v.223h-3.617v-.216c.587-.209.882-.501.882-1.403zm-12.48 6.624h.162a4.024 4.024 0 0 0 4.26 2.696c1.572 0 3.345-.685 3.345-2.27 0-1.357-1.428-1.777-3.014-2.19-2.118-.551-4.45-1.131-4.45-3.517 0-2.252 2.411-3.294 4.768-3.294 1.1-.045 2.19.224 3.144.774.08-.03.174-.044.418-.14h.162v2.584h-.162c-.208-1.906-2.537-2.189-3.592-2.189-1.52 0-2.89.596-2.89 1.906 0 .958 1.917 1.433 2.793 1.67 2.12.551 4.667 1.354 4.667 4.11 0 2.729-2.768 3.672-5.417 3.61a6.735 6.735 0 0 1-4.174-1.374zm-8.28-7.25v4.163h3.64c.437 0 .615-.506.743-1.215h.161l-.226 3.392h-.139c-.064-.514-.18-1.13-.534-1.13h-3.64v4.109c0 .224.11.35.249.35h4.576c.866 0 1.391-.945 1.583-1.625h.162l-.52 2.65h-8.841v-.231c.58-.209.878-.501.878-1.403v-8.429c0-.945-.298-1.227-.878-1.454v-.22h8.624a.381.381 0 0 0 .323-.141h.117l-.254 2.649h-.136c-.034-.472-.161-1.467-.668-1.467zm-16.688-1.12c0-1.114-.359-1.444-1.049-1.704v-.262h7.387c2.978 0 4.425 1.651 4.425 3.742 0 2.09-1.507 3.734-4.467 3.734l3.86 4.588a4.925 4.925 0 0 0 1.79 1.454v.26h-3.222l-5.962-7.164v-.313h3.239a2.325 2.325 0 0 0 2.28-2.553 2.282 2.282 0 0 0-2.28-2.515h-3.186c-.384 0-.646.02-.646.646v10c0 1.051.336 1.402 1.037 1.642v.26h-4.251v-.26c.69-.24 1.048-.59 1.048-1.643zm-8.743 11.806h-1.311l-8.123-9.43v7.93c-.061.587.317 1.13.889 1.275v.223h-3.003v-.221c.58-.136.966-.683.9-1.275v-8.778a1.247 1.247 0 0 0-.9-1.23v-.22h2.746l7.592 8.722v-7.22a1.21 1.21 0 0 0-.901-1.293v-.22h2.993v.22a1.2 1.2 0 0 0-.879 1.293zm-21.735-4.965h4.187l-2.066-4.699zm5.37 2.674l-.72-1.615h-5.144l-1.055 2.295c-.347.808.354 1.218.835 1.388v.223h-3.667v-.223c.427-.143 1.033-.425 1.616-1.67l4.142-9.013c-.06-.347-.75-.583-.939-.6v-.219h2.652l4.515 9.943c.285.72.86 1.287 1.584 1.56v.223h-4.394v-.224c.41-.152 1.18-.585.866-1.369-.084-.237-.19-.455-.286-.706zm-14.68 1.534a4.098 4.098 0 0 0 4.002-2.667h.162l-.227 2.401a8.112 8.112 0 0 1-4.229 1.307 6.04 6.04 0 0 1-6.524-6.15 6.064 6.064 0 0 1 6.524-6.138 9.311 9.311 0 0 1 3.935.898c.06-.027.118-.058.173-.094h.136l-.21 2.6h-.147a3.54 3.54 0 0 0-3.596-2.366 4.72 4.72 0 0 0-4.715 5.076 4.722 4.722 0 0 0 4.715 5.14zm-11.924-4.54V103c-.006.54.37 1.01.9 1.12v.223h-3.651v-.223c.53-.098.915-.562.911-1.102v-3.502l-3.974-5.544a2.432 2.432 0 0 0-1.332-1.131v-.22h3.844v.22c-.34.113-.827.323-.404.916l2.995 4.235 3.28-4.22c.43-.551.01-.837-.448-.93v-.22h3.176v.22c-.395.058-.747.281-.97.613zm-14.815.332h4.19l-2.06-4.699zm5.367 2.661l-.724-1.616h-5.145l-1.055 2.296c-.34.808.36 1.218.84 1.388v.223h-3.667v-.21c.427-.143 1.027-.425 1.616-1.67l4.141-9.013c-.051-.347-.746-.583-.938-.6v-.219h2.65l4.522 9.943a2.709 2.709 0 0 0 1.596 1.56v.223H74.82v-.224c.396-.152 1.171-.585.866-1.369-.094-.237-.192-.455-.297-.706zm-18.878.938c.008.162.13.3.238.3h4a2.114 2.114 0 0 0 2.046-2.362c0-1.181-.612-2.33-1.832-2.33H56.5zm0-9.327v3.893h3.758a1.741 1.741 0 0 0 1.907-1.969c0-1.688-1.085-1.924-1.982-1.924zm-2.733 10.688v-.218c.58-.209.888-.501.888-1.403v-8.429c0-.945-.308-1.227-.888-1.454v-.22h6.678c1.6 0 3.633.485 3.633 2.908a3.047 3.047 0 0 1-1.066 2.367 3.17 3.17 0 0 1 1.908 3.022 3.632 3.632 0 0 1-4.06 3.423zM41.745 94.282c0-.945-.305-1.228-.896-1.454v-.22h6.29c2.53 0 3.766 1.4 3.766 3.183s-1.283 3.184-3.8 3.184l3.284 3.912c.404.522.925.941 1.52 1.224v.223h-2.746l-5.075-6.098v-.255h2.759a1.975 1.975 0 0 0 1.938-2.177 1.939 1.939 0 0 0-1.938-2.144h-2.712c-.343 0-.567.014-.567.55v8.51c0 .904.294 1.194.89 1.403v.223h-3.62v-.226c.59-.209.896-.501.896-1.403zm-24.14-1.939h.139c.11.272.422.272.625.272h8.43v1.105l-7.51 9.599h5.88c.713 0 1.353-.603 1.776-1.626h.154l-.475 2.65h-9.785v-.995l7.509-9.612h-5.654c-.494 0-.961.74-1.165 1.454h-.153zm-10.067.658l2.423 5.512H5.042zm25.928 10.54a5.024 5.024 0 0 1-1.453-.218 3.716 3.716 0 0 1-2.197-3.644h7.821a4.145 4.145 0 0 1-4.172 3.862m-22.103-1.908l-.847-1.885H4.47l-1.23 2.703c-.412.945.415 1.428.969 1.631v.26h-4.29v-.26c.484-.172 1.196-.504 1.88-1.962l4.868-10.584c-.068-.406-.885-.685-1.101-.705v-.261h3.117l5.304 11.677a3.249 3.249 0 0 0 1.86 1.836v.26h-5.159v-.26c.472-.186 1.38-.687 1.02-1.616-.103-.271-.227-.535-.35-.834"/></g></g></g></g><g><g><g><path fill="#967f30" d="M166.456 38.758a19.547 19.547 0 0 0-4.014-3.801 16.914 16.914 0 0 0 6.691-8.944c-.205-.086-.541-.052-.758-.133h.092l.068-.496a.161.161 0 0 0 .015-.05l.014-.123h-.043c0-.017-.021-.022-.024-.038-.183-.02-.377-.028-.56-.052l-.229-.036a.445.445 0 0 1-.055-.013v-.594l-.827-.145a1.013 1.013 0 0 1-.161-.072v-.807h-.178c-.36-.087-.44-.441-.691-.629-.314-.227-.496-.404-.808-.633a5.217 5.217 0 0 0-.212-.725l-.995-.065c.063.169.083.35.057.528l.525.034.073.281.051.04 1.475 1.13a87.169 87.169 0 0 1-2.362-.097 2.05 2.05 0 0 1-.027.247c.943.044 1.885.083 2.86.126v.517l-.022.057c.01-.034.021-.062.021-.062-1.014-.032-2.02-.092-3.03-.14a3.477 3.477 0 0 1-.15.375l4.038.214.06.023.035.378.021.26c.498.03.808.055.82.055l-.007.04h.008l-.086.41v.01c-.144.06-2.93-.105-6.083-.31a4.235 4.235 0 0 1-.475.142c-.037.062-.058.13-.1.186 2.44.142 4.89.247 7.456.323a21.076 21.076 0 0 1-6.802 8.49c-4.832 0-9.242.036-14.078.036a16.829 16.829 0 0 0 2.463-1.867 1.802 1.802 0 0 1-.52-.13 19.521 19.521 0 0 1-2.334 1.9c.037-.03.07-.061.106-.087-.138.14-.313.24-.504.288a.087.087 0 0 1 0 .027c.012.108.017.215.015.323a1.152 1.152 0 0 1 .376.192c1.143.794 2.202 1.7 3.162 2.708a.937.937 0 0 1 .43-.139 16.04 16.04 0 0 0-3.519-2.801c4.079-.128 8.353.087 12.648.087.595-.02 1.19.02 1.777.12.79.327 1.492.834 2.05 1.48a21.13 21.13 0 0 1 1.832 1.973 33.73 33.73 0 0 1 2.889 4.927c-2.453.152-4.685.294-6.982.422.043.055.092.108.142.161.03.042.057.087.08.133 3.09-.204 5.816-.369 5.978-.296l.085.406a6.945 6.945 0 0 1-.79.085h-.03l-.021.264h.025l-.058.361-3.969.228c.094.097.178.199.265.3 1.553-.106 2.633-.177 2.682-.138l.072.433c-.78.165-1.576.252-2.374.258.05.083.095.168.136.255.66-.043 1.332-.087 1.95-.12a.778.778 0 0 1-.269.162l-.44.268c.043.021.057.055 0 .057l-.11.008-.456.278h.145l-.161.013-.042.027c.09.06.18.122.273.18.528-.343.895-.852 1.615-.995v-.85c.333 0 .533-.12.847-.14v-.01l.132-.025v-.596a3.41 3.41 0 0 0 .913-.144l-.099-.665a4.81 4.81 0 0 0 .666-.107 13.3 13.3 0 0 0-2.677-5.143"/></g></g><g><g><path fill="#967f30" d="M134.89 48.909a.13.13 0 0 1-.039-.021c.01.01.022.017.034.024z"/></g></g><g><g><path fill="#967f30" d="M142.625 70.678a21.04 21.04 0 0 1-8.488-6.804c0-4.833-.045-9.242-.045-14.076a16.217 16.217 0 0 0 9.3 7.203c-.42 4.615-.646 8.949-.767 13.677zm-9.034-8.55a8.68 8.68 0 0 1-.12 1.777 5.53 5.53 0 0 1-1.484 2.053 21.998 21.998 0 0 1-1.97 1.83 33.415 33.415 0 0 1-4.927 2.89c-.291-4.709-.548-8.584-.742-13.721a16.299 16.299 0 0 0 9.332-7.478c.128 4.082-.087 8.35-.087 12.647zm-10.422 5.946l-.435.074a23.107 23.107 0 0 1-.323-3.316 809.364 809.364 0 0 1-.765-10.63 29.856 29.856 0 0 0 7.172-1.34 20.53 20.53 0 0 1-6.407 2.042c.066 4.101.863 13.033.753 13.17zm-.997-.485l-.265-.44c-.02.045-.053.057-.056 0-.004-.059 0-.077 0-.11l-.281-.461v.147c0-.055 0-.108-.015-.161l-.349-.57c0 .044 0 .089.003.133-.005-.053-.007-.107-.014-.158v-.01l-.323-.013-.84-10.661v.011c-.087-1.173-.199-2.345-.272-3.52.25.382.676.865.987 1.331.273.416.525.548.63.93a8.94 8.94 0 0 1 .186 1.778c.197 3.738.574 8.33.774 12.042a.837.837 0 0 1-.162-.268zm-.963-1.462zm15.298-19.013c-.192.15-.383.3-.564.462.285.044 8.987 2.669 11.964 3.588-.284 4.103-.666 8.95-.97 13.115-.046.622-.116 1.835-.116 1.835l-.282.072-.047.05-1.12 1.478c.023-.892.062-1.685.11-2.645v-.017c.154-3.03.409-6.308.59-9.308a10.825 10.825 0 0 1 .068-1.761c.111-.327.288-.629.518-.887.307-.472.598-.898.837-1.268a13.11 13.11 0 0 1-2.817-.636c-2.086-.6-7.034-2.262-9.163-2.792a85.81 85.81 0 0 0 11.406 3.824l-.245.297c-.226.564-.735.354-1.149.292-3.258-.484-7.878-2.621-10.645-3.626a54.468 54.468 0 0 0 6.088 2.895c2.908.912 5.22 1.374 5.22 1.374l-.323.441c-.055 0-.113-.014-.162-.02a.969.969 0 0 1-.262.033 12.93 12.93 0 0 1-2.957-.349 14.567 14.567 0 0 1-7.606-3.521c-.179-.17-.394-.323-.571-.503a17.318 17.318 0 0 0 9.894 5.678c.23.036.438.102.678.123-.249 4.317-.732 13.548-.746 13.692l-.021.06-.375.037-.262.023c-.033.496-.054.808-.054.824h-.046l-.405-.088h-.011c-.109-.258.516-9.125.793-13.21-.485-.212-.955-.45-1.435-.672a18.016 18.016 0 0 1-8.092-6.539 1.375 1.375 0 0 1-.17-.244.487.487 0 0 0-.062.048.43.43 0 0 1-.472.034c-.025.038-.047.078-.076.117v-.002l-.013.02-.001.001c-.239.353-3.538 5.19-8.306 6.626-.415.175-.798.383-1.238.538.241 3.905.916 13.017.785 13.293l-.408.087c-.013-.033-.044-.332-.084-.796v-.02l-.259-.028v.027l-.363-.061-.79-13.752c.28-.03.522-.1.79-.144a19.974 19.974 0 0 0 5.255-1.925c.203-.117.42-.231.62-.352a13.857 13.857 0 0 0 3.885-3.359c-.13.143-.268.28-.412.409a16.529 16.529 0 0 1-10.279 3.877 2.198 2.198 0 0 1-.492 0c-.146.013-.272.042-.42.051l-.324-.44-.23-.308-.015-.024-.042-.058 1.486-.26a38.447 38.447 0 0 0 9.952-3.678c-1.33.375-2.64.828-3.918 1.355a38.827 38.827 0 0 1-7.39 2.082c-.418.062-.586.065-.893-.392 3.3-.714 8.594-2.747 11.631-3.738a50.36 50.36 0 0 0-5.124 1.355c-1.983.577-3.945 1.274-6.004 1.84-.48.065-.953-.16-1.205-.574 2.893-1.014 6.623-2.029 9.648-2.956.749-.258 1.525-.43 2.312-.512a.86.86 0 0 0-.073-.058.423.423 0 0 1-.148-.457l-12.251 3.65 1.318 15.7c.234.025.47.033.704.025.297.76 1.024 1.087 1.199 1.969h.846c0 .336.123.535.14.848l.01.008.031.131h.595c.005.31.053.618.142.914l.67-.1c.016.225.05.447.104.666a13.308 13.308 0 0 0 5.141-2.677 19.604 19.604 0 0 0 3.806-4.014 16.9 16.9 0 0 0 8.94 6.69c.087-.205.055-.54.13-.754v.087l.498.075a.297.297 0 0 0 .05.01l.125.016v-.047a.22.22 0 0 0 .038-.024c.015-.18.028-.378.052-.56l.037-.23c0-.017.011-.038.015-.055h.59l.146-.826c.023-.056.044-.113.07-.161h.807v-.176c.093-.36.438-.44.629-.692.226-.312.402-.497.636-.807.247-.054.49-.124.726-.212l1.053-15.83zm-2.28 2.351l.056.06c-.026-.038-.057-.07-.088-.107l.033.047zm10.87 18.724h-.518l-.055-.024.06.024c.139-4.425.472-8.744.646-13.217a29.071 29.071 0 0 1-6.403-2.04c.482.046.955.164 1.402.35a15.507 15.507 0 0 0 5.575 1.044c-.323 4.742-.498 9.063-.705 13.864"/></g></g><g><g><path fill="#967f30" d="M120.384 37.104a.14.14 0 0 1 .018-.042l-.023.035z"/></g></g><g><g><path fill="#967f30" d="M121.813 37.512a2.284 2.284 0 0 1-.807-.646c-.15-.122-.304-.248-.456-.37a.441.441 0 0 1-.161-.3c.051.378-.19.38-.049.646l.402.323c.028.065.06.127.096.188.21.332.504.602.854.781l.036.017c0 .066-.281.996-.675 2.322.161.096.347.162.507.269l.011.008.774-2.56.084-.235c-.204-.142-.406-.29-.603-.443"/></g></g><g><g><path fill="#967f30" d="M121.71 33.844c.134-.123.271-.249.402-.376l.012-.047c0-.028.02-.044.027-.068l-1.014-3.415-.36.161c.137.469.28.95.416 1.395.264.76.437 1.548.517 2.348"/></g></g><g><g><path fill="#967f30" d="M120.361 36.186a.55.55 0 0 1-.255-.383 1.44 1.44 0 0 1-.238-.161l.018.018a20.673 20.673 0 0 1-3.69-3.294c-.122.072-.254.126-.376.202h-.024a15.882 15.882 0 0 0 4.011 3.327c-4.08.126-8.35-.087-12.642-.087a8.753 8.753 0 0 1-1.777-.123 5.54 5.54 0 0 1-2.055-1.48 22.519 22.519 0 0 1-1.831-1.97 33.803 33.803 0 0 1-2.889-4.93c2.585-.162 4.914-.304 7.339-.438a.27.27 0 0 0-.03-.022.98.98 0 0 1-.272-.272c-3.203.213-6.088.39-6.242.323l-.089-.405c.263-.044.528-.073.793-.087h.025l.027-.265h-.027l.06-.36 4.46-.256c-.091-.103-.183-.202-.272-.308-1.814.127-3.116.214-3.166.176l-.078-.436c.925-.176 1.863-.271 2.805-.285-.062-.082-.128-.161-.19-.248-.796.051-1.589.103-2.332.142a.89.89 0 0 1 .275-.162l.442-.268c-.048-.02-.061-.055 0-.057h.11l.459-.28h-.15c.051 0 .11-.009.161-.017l.412-.252-.063-.087c-.07-.1-.144-.207-.208-.304-.015-.02-.012-.048-.023-.067a2.877 2.877 0 0 0 0 .308c-.754.29-1.089 1.02-1.97 1.192v.848c-.324 0-.532.121-.845.142v.009l-.133.027v.596c-.31.004-.619.053-.916.144l.103.665a4.319 4.319 0 0 0-.665.107 13.336 13.336 0 0 0 2.673 5.143 19.636 19.636 0 0 0 4.015 3.801 16.921 16.921 0 0 0-6.688 8.943c.202.087.538.052.751.13h-.084l-.077.5c-.001.016-.001.031 0 .047l-.018.126h.047c0 .016.014.02.022.037.183.021.38.032.558.057l.234.03.056.015v.593l.827.145c.056.022.11.046.162.074v.808h.178c.366.09.439.443.691.632.313.224.5.402.817.635.05.246.12.488.207.723l.378.025c.013-.03.01-.059.024-.086.049-.12.09-.242.122-.367-.018-.02-.046-.042-.06-.063h-.052l-.034-.126a1.834 1.834 0 0 1-.061-.173l-.028-.025-1.475-1.131c.618.014 1.2.04 1.806.07.021-.017.044-.027.064-.041a.788.788 0 0 1 .017-.137c.012-.025.023-.04.034-.062l-2.39-.105v-.517l.02-.055-.02.058c.885.028 1.76.088 2.647.127.073-.13.15-.256.226-.374l-3.715-.198-.058-.021-.036-.377-.022-.265c-.498-.029-.808-.051-.824-.055v-.04l.089-.407v-.011c.135-.058 2.584.087 5.492.273.12-.113.249-.23.376-.343-2.18-.12-4.382-.203-6.671-.265a21.12 21.12 0 0 1 6.802-8.489c4.832 0 9.243-.04 14.075-.04a17.283 17.283 0 0 0-2.607 1.989c.051.038.105.074.161.116a1.1 1.1 0 0 1 .142.205h.028a19.794 19.794 0 0 1 2.67-2.213c-.036.03-.07.061-.103.09a.989.989 0 0 1 .576-.313"/></g></g><g><g><path fill="#967f30" d="M125.303 45.828c0-.014-.012-.03-.015-.042-.003-.01 0 .028.011.04z"/></g></g><g><g><path fill="#967f30" d="M103.466 51.112c.173-.025 5.925-6.902 8.78-9.853a20.48 20.48 0 0 0 5.977 3.087 29.41 29.41 0 0 1-6.02-4.125 703.122 703.122 0 0 0-6.976 8.06 22.836 22.836 0 0 0-2.12 2.57zm-.358-1.048a.946.946 0 0 0-.073.307c2.486-2.764 5.461-6.277 7.967-9.064a8.641 8.641 0 0 0 1.123-1.39c.2-.342.116-.611.211-1.106.113-.546.15-1.189.246-1.634-.774.883-1.532 1.786-2.299 2.684v-.017l-6.946 8.141.211.231v.013c-.048.068-.11.132-.161.2.058-.058.11-.118.161-.176l-.161.646c-.032.04-.07.083-.103.123l.1-.107-.123.522c-.026.028-.034.049-.074.083-.04.034 0 .053.043.034l-.123.504zm11.937 4.21a8.723 8.723 0 0 1-1.344 1.17 5.518 5.518 0 0 1-2.499.405c-.896.023-1.794-.01-2.686-.097a33.842 33.842 0 0 1-5.53-1.441c3.126-3.54 5.683-6.462 9.182-10.227a16.275 16.275 0 0 0 11.876 1.31c-2.79 2.976-5.959 5.843-8.997 8.885m8.968-9.139c-.037 0-.07.016-.106.021h.029s-6.03 1.264-10.587-1.185c-.422-.162-.839-.291-1.25-.495-2.593 2.932-8.56 9.854-8.845 9.956l-.355-.228c.014-.035.202-.268.5-.622l.018-.02-.161-.203a.08.08 0 0 0-.021.018l-.215-.297 9.17-10.284c.215.178.433.3.656.456a19.98 19.98 0 0 0 5.077 2.355c.23.065.456.13.685.19 1.67.44 3.408.568 5.124.377h-.58a16.561 16.561 0 0 1-10.015-4.523 2.75 2.75 0 0 1-.347-.344c-.113-.099-.227-.162-.338-.263l.084-.545.055-.373.014-.1c.808.567.987.688 1.235.863a38.276 38.276 0 0 0 9.642 4.435 36.662 36.662 0 0 0-3.732-1.812 38.722 38.722 0 0 1-6.697-3.754c-.343-.252-.459-.367-.354-.908 2.838 1.829 8.029 4.132 10.867 5.578a51.358 51.358 0 0 0-4.586-2.667c-1.803-.99-3.688-1.885-5.543-2.942a1.22 1.22 0 0 1-.45-1.258c2.765 1.326 6.122 3.248 8.917 4.733.657.323 1.28.713 1.857 1.165.018-.193.034-.383.04-.579L112.86 35.97 102.7 48.003c.15.184.311.359.484.521-.323.742-.047 1.493-.554 2.24.207.201.402.398.603.597-.238.231-.293.464-.498.698v.013l-.077.113.416.42a3.44 3.44 0 0 0-.54.751l.54.397a4.976 4.976 0 0 0-.39.548 13.306 13.306 0 0 0 5.524 1.745c1.84.21 3.7.16 5.526-.15a16.889 16.889 0 0 0 1.592 11.052c.21-.082.421-.343.625-.438l-.062.06.304.405a.154.154 0 0 0 .03.04l.073.101.034-.03c.015.006.03.01.046.014.142-.117.29-.247.432-.36l.188-.14.047-.027.421.417.69-.485c.052-.024.106-.044.162-.06l.544.547.02.02.125-.127c.324-.19.626 0 .933-.042.382-.061.646-.07 1.027-.13.21.138.43.26.659.366l.03-.026a2.171 2.171 0 0 1-.773-.709l-1.464.2c.357-.344.71-.667 1.067-.993a2.62 2.62 0 0 1-.088-.25c-.502.458-.996.912-1.51 1.384l-.359-.365-.024-.055.028.058c.581-.546 1.167-1.065 1.749-1.598-.023-.161-.04-.31-.057-.468-1.484 1.336-2.571 2.308-2.613 2.349l-.055.024-.294-.242-.204-.162c-.371.323-.602.53-.62.544l-.023-.038-.221-.35v-.01c.057-.135 1.867-1.75 4.03-3.65.013-.184.028-.362.047-.531a244.691 244.691 0 0 0-4.881 4.508 21.122 21.122 0 0 1-1.191-10.811c3.418-3.42 6.508-6.567 9.928-9.982a16.85 16.85 0 0 0-.468 3.618c.161-.054.323-.103.484-.146a20.672 20.672 0 0 1 .323-3.68c0 .046 0 .093-.01.139.003-.175.044-.347.12-.504h-.171a.475.475 0 0 1-.388-.18"/></g></g><g><g><path fill="#967f30" d="M127.517 45.316h-2.723c.116.162.065.286.29.352l.516-.048c.067.026.135.047.205.065a2.218 2.218 0 0 0 1.19-.065c.043.053.568 1.016 1.293 2.363.084-.048.18-.082.26-.13a.828.828 0 0 1 .299-.055z"/></g></g><g><g><path fill="#967f30" d="M144.245 43.872a.113.113 0 0 0-.044.018.198.198 0 0 1 .044-.011z"/></g></g><g><g><path fill="#967f30" d="M164.725 50.647l-.055.024.056-.026zm.001-.002l.001-.002v.001zm-8.883-9.8a28.99 28.99 0 0 1-5.977 3.085c.375-.31.795-.562 1.246-.746a15.403 15.403 0 0 0 4.675-3.205c3.12 3.585 6.054 6.76 9.301 10.303l-.36.36v.001c-3.031-3.22-5.855-6.51-8.885-9.798zm9.646 11.993a.058.058 0 0 0 .011-.042c-.113-.144-.246-.288-.355-.435l-.14-.187c-.015-.013-.02-.034-.03-.05l.418-.415-.484-.692c-.021-.055-.044-.11-.058-.161l.567-.569-.123-.126c-.19-.323 0-.62-.045-.932-.059-.381-.065-.637-.126-1.024.135-.212.256-.432.36-.661l-10.445-11.943-11.11 5.96a.646.646 0 0 1 .048.211c.014.5.103 1.097.103 1.679 0-.021.018-.05.023-.068a2.198 2.198 0 0 0-.057-1.158.054.054 0 0 0-.011-.034c.161-.131 8.238-4.467 11.004-5.927 2.702 3.101 5.862 6.797 8.594 9.959.405.471 1.208 1.374 1.208 1.374l-.145.252v.067l.252 1.84c-.622-.647-1.155-1.233-1.798-1.939v-.018c-2.031-2.25-4.166-4.754-6.165-6.998a10.9 10.9 0 0 1-1.197-1.292 2.72 2.72 0 0 1-.26-.99c-.123-.553-.215-1.06-.302-1.493a13.128 13.128 0 0 1-2.44 1.543c-1.902 1.052-6.58 3.373-8.454 4.507a85.924 85.924 0 0 0 10.77-5.365l.034.386c.237.554-.272.77-.603 1.02-2.647 1.957-7.43 3.715-10.093 4.96a54.433 54.433 0 0 0 6.354-2.261c2.705-1.417 4.66-2.716 4.66-2.716l.087.542c-.045.042-.095.064-.139.103-.046.076-.1.146-.161.21a12.82 12.82 0 0 1-2.338 1.843 14.562 14.562 0 0 1-7.87 2.89c-.242 0-.506.044-.758.044 3.9.28 7.78-.767 11.01-2.973.19-.14.382-.242.57-.395 2.873 3.23 9.055 10.096 9.15 10.207l.035.057-.246.294-.162.203c.324.373.529.604.542.622l-.036.021-.352.228h-.011c-.259-.103-6.089-6.815-8.783-9.9-.494.195-.989.356-1.486.537a18.011 18.011 0 0 1-10.357 1.095 1.382 1.382 0 0 1-.287-.054c-.081.166-.19.317-.323.445.018.053.033.107.043.162a.07.07 0 0 0 0-.026c.267 1.46.372 2.943.314 4.425.161.06.323.11.468.172a16.256 16.256 0 0 0-.56-4.707c2.972 2.795 5.84 5.966 8.884 9.004a8.7 8.7 0 0 1 1.173 1.343c.325.79.462 1.645.4 2.497.023.898-.008 1.797-.093 2.691a34.217 34.217 0 0 1-1.444 5.525 989.418 989.418 0 0 1-5.404-4.79c0 .14.01.278 0 .417 2.375 2.08 4.488 3.948 4.541 4.106l-.223.351a7.384 7.384 0 0 1-.625-.5l-.018-.02-.203.161a.099.099 0 0 0 .018.018l-.3.213-3.312-2.953c-.015.128-.034.259-.047.388 1.373 1.197 2.358 2.055 2.365 2.121l-.259.357a15.83 15.83 0 0 1-2.203-1.796l-.034.323c.6.525 1.195 1.048 1.743 1.541a.78.78 0 0 1-.31-.074l-.501-.12c.018.045 0 .08-.036.045l-.084-.074-.523-.124c.037.034.074.064.11.1a1.962 1.962 0 0 1-.123-.103l-.304-.073a.777.777 0 0 1-.066.275c.747.323 1.49.05 2.233.55l.597-.599c.24.237.469.29.701.5h.015l.111.075.422-.42c.221.216.472.399.745.544l.399-.544c.172.144.354.276.544.396a13.265 13.265 0 0 0 1.75-5.526c.21-1.841.158-3.702-.154-5.528a16.92 16.92 0 0 0 11.056-1.595c-.08-.205-.344-.418-.44-.625l.06.062.406-.3a.148.148 0 0 0 .043-.027l.099-.077zm-21.34-8.11l.09.004a.448.448 0 0 0-.135-.013l.045.009zm20.955 9.066a21.129 21.129 0 0 1-10.815 1.19c-3.421-3.416-6.563-6.506-9.981-9.926 3.938.987 8.102.459 11.67-1.48 2.962 3.554 5.87 6.785 9.126 10.216"/></g></g><g><g><path fill="#967f30" d="M141.647 25.33l.015.04-.012-.04z"/></g></g><g><g><path fill="#967f30" d="M142.125 25.783c-.074-.136-.046-.244-.252-.299l-.518.049a1.924 1.924 0 0 0-.202-.067 2.262 2.262 0 0 0-1.158.052.082.082 0 0 0-.031.015c-.053-.063-.578-1.03-1.454-2.669-.106.18-.394.066-.577.149l1.441 2.69c.921-.043 1.839.033 2.76.079"/></g></g><g><g><path fill="#967f30" d="M148.732 26.822l.038.02a28.312 28.312 0 0 0-.041-.014zm5.974 3.093c2.858-2.95 8.605-9.828 8.784-9.854l.357.256a23.61 23.61 0 0 1-2.117 2.571 780.37 780.37 0 0 1-6.979 8.056 29.562 29.562 0 0 0-5.98-4.102c2.134.69 4.14 1.728 5.935 3.073zm9.012-10.11c.238-.231.288-.464.494-.695v-.014l.078-.115-.418-.42c.216-.222.399-.474.544-.748l-.544-.4c.147-.17.28-.352.399-.544a13.354 13.354 0 0 0-5.528-1.744 19.592 19.592 0 0 0-5.531.152c.74-3.757.18-7.654-1.588-11.051-.209.08-.417.34-.625.436l.058-.061-.294-.404a.127.127 0 0 0-.034-.04l-.074-.1-.036.027c-.015 0-.03 0-.044-.012-.147.117-.287.244-.434.36l-.186.14a.416.416 0 0 1-.047.029l-.421-.419-.69.485a1.255 1.255 0 0 1-.162.06c-.18-.181-.363-.369-.547-.547l-.016-.02-.13.126c-.323.19-.625 0-.932.043-.189.03-.35.047-.51.063.013.011.013.03.024.04.1.08.177.183.226.3l.79-.102c-.249.232-.485.454-.725.672-.004.107-.001.215.008.323l1.24-1.131.366.363.022.057-.026-.058c-.5.468-1.003.912-1.51 1.371a.72.72 0 0 0 .014.08.969.969 0 0 1 0 .429c1.385-1.244 2.372-2.126 2.41-2.163l.052-.024.296.24.203.162c.369-.323.603-.53.62-.543l.023.037.227.35v.01c-.055.13-1.718 1.614-3.756 3.41 0 .145.037.287.037.432v.018c1.5-1.354 2.993-2.733 4.533-4.2a21.144 21.144 0 0 1 1.19 10.813c-3.42 3.42-6.508 6.564-9.926 9.985.303-1.264.461-2.558.471-3.858a.85.85 0 0 1-.5.09c.024 1.31-.08 2.62-.311 3.909-.01.135-.043.268-.098.392l.212.01a.464.464 0 0 1 .604-.341c2.72-2.861 5.763-5.635 8.692-8.562a8.757 8.757 0 0 1 1.344-1.17 5.515 5.515 0 0 1 2.5-.405c.896-.023 1.793.01 2.685.097 1.881.323 3.731.805 5.53 1.441-3.121 3.54-5.686 6.462-9.179 10.227a16.335 16.335 0 0 0-11.277-1.454c.062.071.104.157.123.249 3.376-.57 6.845-.12 9.964 1.292.421.162.84.291 1.25.495 2.594-2.932 8.562-9.854 8.85-9.956l.351.226c-.014.039-.205.268-.499.622l-.02.021.162.202.018-.018.215.3-9.167 10.28c-.22-.177-.44-.298-.663-.454a20.002 20.002 0 0 0-5.077-2.354l-.685-.192a14.182 14.182 0 0 0-4.694-.4.07.07 0 0 1 0 .027h.15a16.583 16.583 0 0 1 10.016 4.523c.127.103.244.22.347.349.113.098.226.161.34.258l-.087.544-.054.38-.015.099-1.237-.866a37.265 37.265 0 0 0-9.42-4.362.34.34 0 0 1 0 .058c.835.5 2.756 1.341 3.519 1.677a38.91 38.91 0 0 1 6.694 3.754c.334.254.455.364.345.906-2.764-1.776-7.753-4.009-10.63-5.463a.361.361 0 0 0 0 .06c.932.656 3.658 2.113 4.361 2.494 1.81.99 3.688 1.88 5.546 2.942.385.293.562.786.449 1.257-2.763-1.325-6.12-3.249-8.917-4.733a11.157 11.157 0 0 1-1.575-.953c-.028.161-.045.336-.074.503l10.692 5.78 10.177-12.031a5.363 5.363 0 0 0-.485-.525c.333-.742.05-1.493.55-2.239zm-21.22 5.599l.002-.07c-.014.044-.014.089-.014.136l.012-.066zm21.27-3.763c-.026.028-.047.055-.072.084l-.123.522c.03-.03.064-.071.097-.107-.028.04-.07.083-.102.123l-.154.646c.05-.058.104-.118.162-.176-.053.07-.115.136-.162.199v.014l.212.232-6.946 8.141v-.018c-.767.895-1.522 1.801-2.296 2.685.097-.446.134-1.089.243-1.638.097-.485.014-.76.21-1.103.331-.5.71-.966 1.13-1.393 2.506-2.785 5.493-6.3 7.966-9.064a.927.927 0 0 1-.07.31l-.122.5c.043-.018.08 0 .043.035"/></g></g><g><g><path fill="#967f30" d="M123.382 26.555a.235.235 0 0 1 .044-.016l-.044.011z"/></g></g><g><g><path fill="#967f30" d="M102.88 19.77l.055-.02a.55.55 0 0 1-.059.026c3.03 3.23 5.85 6.513 8.885 9.802a28.902 28.902 0 0 1 5.977-3.086 4.986 4.986 0 0 1-1.246.743 15.484 15.484 0 0 0-4.684 3.205c-3.123-3.58-6.055-6.757-9.305-10.3l.364-.364zm8.749 7.071c-2.97-3.553-5.872-6.784-9.13-10.214a21.135 21.135 0 0 1 10.822-1.193c3.419 3.42 6.56 6.508 9.979 9.924a16.216 16.216 0 0 0-11.665 1.482m16.693-3.958a7.372 7.372 0 0 0-.237-.044c-.055.105-.121.222-.173.323a10.5 10.5 0 0 1-1.352 2.1c-.787-.144-1.6 0-2.29.407a.318.318 0 0 0-.05.038 1.181 1.181 0 0 1-.19-.54.036.036 0 0 0 0 .027 19.656 19.656 0 0 1-.323-3.66 3.668 3.668 0 0 1-.457-.292c.016 1.372.205 2.737.564 4.062-2.973-2.797-5.84-5.967-8.885-9.007a8.788 8.788 0 0 1-1.173-1.34 5.492 5.492 0 0 1-.402-2.5 21.19 21.19 0 0 1 .099-2.686c.322-1.88.803-3.73 1.437-5.528a990.473 990.473 0 0 1 5.186 4.602c.011-.129.026-.255.04-.383-2.3-2.016-4.313-3.799-4.361-3.952l.22-.354c.218.157.426.324.626.502l.018.021.203-.17-.014-.017.297-.212 3.103 2.764v-.421c-1.237-1.08-2.1-1.839-2.114-1.9l.26-.357c.674.443 1.303.95 1.878 1.515 0-.097.04-.195.055-.292-.5-.443-.993-.877-1.453-1.293a.83.83 0 0 1 .31.073l.497.12c-.018-.042 0-.078.037-.042.038.035.055.048.084.074l.522.123-.11-.1c.046.032.084.067.126.103l.162.037a.975.975 0 0 0 .018-.113c.027-.056.059-.11.095-.162-.712-.26-1.425-.042-2.132-.52l-.6.601c-.234-.236-.468-.29-.698-.499h-.017l-.109-.074-.424.417a3.44 3.44 0 0 0-.745-.542l-.402.542a4.613 4.613 0 0 0-.545-.395 13.343 13.343 0 0 0-1.746 5.525 19.664 19.664 0 0 0 .162 5.531 16.884 16.884 0 0 0-11.054 1.591c.08.205.342.417.437.627l-.061-.063-.402.299a.266.266 0 0 0-.044.03l-.098.077.029.037c0 .014 0 .024-.015.038.116.144.249.293.357.438l.139.186a.35.35 0 0 1 .034.052l-.42.416.485.69c.023.053.042.107.058.162-.178.182-.369.366-.545.546l-.02.02.122.128c.19.323 0 .62.045.932.062.382.065.637.126 1.025-.136.21-.257.43-.36.659l10.447 11.944 11.38-6.106a.474.474 0 0 1-.02-.162 2.2 2.2 0 0 1 .16-.714 2.306 2.306 0 0 1-.135-.984.547.547 0 0 1-.176-.77c-.116.047-.204.05-.257.23l.053.516c-.028.065-.05.133-.066.202a2.29 2.29 0 0 0 .05 1.158.073.073 0 0 0 .015.033c-.162.126-8.239 4.463-11.009 5.925-2.694-3.103-5.857-6.794-8.584-9.959a163.629 163.629 0 0 0-1.215-1.378l.147-.249v-.068l-.249-1.841a86.78 86.78 0 0 1 1.793 1.95v.014c2.03 2.252 4.166 4.753 6.163 7 .433.398.834.83 1.199 1.292.147.312.234.648.258.992.118.55.217 1.056.304 1.493a12.972 12.972 0 0 1 2.44-1.543c1.904-1.053 6.582-3.373 8.456-4.509a85.508 85.508 0 0 0-10.772 5.368l-.034-.39c-.237-.556.275-.77.603-1.015 2.65-1.963 7.43-3.715 10.096-4.967a53.86 53.86 0 0 0-6.357 2.261c-2.705 1.412-4.66 2.716-4.66 2.716l-.084-.543a1.54 1.54 0 0 1 .136-.104 1.01 1.01 0 0 1 .161-.208 12.749 12.749 0 0 1 2.338-1.845 14.558 14.558 0 0 1 7.87-2.89c.24 0 .504-.045.756-.045-3.9-.278-7.78.77-11.009 2.976-.182.139-.383.242-.567.395-2.877-3.23-9.06-10.094-9.16-10.21l-.02-.057.237-.29.162-.2-.541-.621.037-.023.347-.225h.013c.26.104 6.088 6.814 8.788 9.903.484-.199.985-.36 1.483-.54a17.993 17.993 0 0 1 10.401-1.085c-.043 0-.095 0-.139-.015a.996.996 0 0 1 .646.197s-.01 0-.014.013a.513.513 0 0 1 .184-.037h.646a7.94 7.94 0 0 1 2.115-.147l1.544-2.846a1.484 1.484 0 0 1-.186 0"/></g></g><g><g><path fill="#967f30" d="M132.524 21.974l.038.021-.032-.024z"/></g></g><g><g><path fill="#967f30" d="M133.837 8.744a8.79 8.79 0 0 1 .12-1.777 5.483 5.483 0 0 1 1.482-2.051 21.887 21.887 0 0 1 1.97-1.832 33.582 33.582 0 0 1 4.926-2.89c.296 4.71.548 8.58.742 13.72a16.296 16.296 0 0 0-9.327 7.478c-.128-4.08.087-8.351.087-12.645zm10.422-5.946l.433-.074c.19 1.095.297 2.203.323 3.314a734.6 734.6 0 0 1 .764 10.631c-2.437.15-4.846.6-7.172 1.342a20.413 20.413 0 0 1 6.408-2.043c-.064-4.103-.866-13.036-.75-13.17zm1 .48l.272.44c.017-.046.055-.06.055 0v.112l.28.459v-.147c0 .052 0 .106.01.161l.35.572-.01-.239c.01.087.014.178.025.262v.011l.323.013.84 10.662-.01-.012c.091 1.173.2 2.347.272 3.522-.245-.381-.675-.866-.98-1.33-.281-.418-.53-.547-.637-.93a8.98 8.98 0 0 1-.186-1.777c-.198-3.74-.573-8.332-.777-12.046a.797.797 0 0 1 .162.271zm-12.458 18.64l-.323.399c-.072.033-.13.066-.192.096-.33.21-.599.506-.777.855a.133.133 0 0 0-.014.036c-.204-.025-8.985-2.67-11.975-3.595.287-4.103.667-8.947.969-13.115.044-.622.121-1.83.121-1.83l.278-.071.042-.055 1.123-1.477a94.2 94.2 0 0 1-.107 2.646v.015c-.162 3.032-.417 6.311-.593 9.31a11.7 11.7 0 0 1-.07 1.76 2.78 2.78 0 0 1-.513.889c-.307.471-.6.894-.845 1.266.96.108 1.903.32 2.816.635 2.088.602 7.038 2.261 9.164 2.791a85.857 85.857 0 0 0-11.41-3.82l.257-.297c.218-.564.729-.354 1.142-.294 3.259.484 7.879 2.621 10.647 3.63a53.956 53.956 0 0 0-6.091-2.897 56.633 56.633 0 0 0-5.216-1.376l.323-.441c.058 0 .108.016.161.02.086-.021.175-.032.264-.033.996.003 1.99.121 2.959.352a14.559 14.559 0 0 1 7.607 3.521c.176.162.394.324.57.501a17.361 17.361 0 0 0-9.891-5.68c-.23-.037-.441-.1-.678-.122.245-4.316.728-13.545.74-13.69l.025-.06.373-.037.26-.023c.036-.494.055-.808.062-.824l.039.008V.903l.405.087h.011c.107.26-.517 9.125-.793 13.21.495.214.958.453 1.433.674a18.012 18.012 0 0 1 8.087 6.527c.148.149.245.343.276.552-.394.061-.386-.195-.646-.048zM122.32 2.694h.514c-.137 4.425-.472 8.743-.646 13.217 2.209.43 4.36 1.115 6.411 2.042a5.032 5.032 0 0 1-1.41-.353 15.507 15.507 0 0 0-5.573-1.044c.323-4.743.496-9.062.709-13.862zm2.472-2.49h-.002zm8.487 6.8c0 4.838.039 9.244.039 14.078a16.222 16.222 0 0 0-9.294-7.201c.419-4.618.646-8.949.768-13.677a21.148 21.148 0 0 1 8.487 6.8zm.472 14.954a1.087 1.087 0 0 1 .23-.493s3.372-5.158 8.325-6.647c.416-.176.807-.383 1.234-.536-.238-3.905-.913-13.016-.78-13.297l.405-.087c.045.264.074.53.087.797v.025l.26.025v-.026l.365.058.786 13.752c-.28.032-.519.1-.786.148a19.92 19.92 0 0 0-5.256 1.924c-.208.117-.418.231-.625.35a14.183 14.183 0 0 0-3.885 3.36c.136-.144.283-.282.409-.408a16.552 16.552 0 0 1 10.285-3.877c.16-.016.323-.016.484 0 .15-.008.273-.042.424-.05l.323.441.229.307.06.083c-.97.17-1.184.211-1.483.261a38.332 38.332 0 0 0-9.954 3.68 36.096 36.096 0 0 0 3.919-1.355 38.636 38.636 0 0 1 7.389-2.08c.421-.06.586-.064.891.392-3.295.714-8.598 2.746-11.63 3.738 1.73-.364 3.44-.818 5.124-1.359 1.983-.573 3.941-1.273 6.004-1.84.48-.065.954.16 1.207.574-2.89 1.016-6.624 2.029-9.65 2.956-.786.273-1.603.45-2.432.526a3.33 3.33 0 0 0-1.908-1.329l-.064-.008m1.9 1.956a.034.034 0 0 0 .012.011l12.649-3.772-1.323-15.696a4.832 4.832 0 0 0-.708-.026c-.295-.76-1.024-1.09-1.195-1.973h-.847c0-.323-.122-.533-.142-.844l-.011-.01-.024-.131h-.596a3.362 3.362 0 0 0-.143-.911l-.667.099a4.769 4.769 0 0 0-.103-.664 13.3 13.3 0 0 0-5.147 2.676 19.616 19.616 0 0 0-3.8 4.015A16.897 16.897 0 0 0 124.65.002c-.09.205-.052.54-.136.752V.666L124.03.59h-.052l-.123-.016-.011.047a.208.208 0 0 0-.036.022c-.017.183-.03.379-.053.561l-.03.23c0 .017-.012.035-.015.051h-.593l-.145.827c-.025.06-.05.11-.073.162h-.808v.177c-.088.362-.437.44-.63.692-.224.313-.402.499-.633.807a4.917 4.917 0 0 0-.724.212l-1.054 15.83 12.393 3.74.402.144.03-.022c.036-.152.45-1.74 1.721-1.777.784.405 1.48.962 2.045 1.64"/></g></g><g><g><path fill="#967f30" d="M143.288 39.677v5.454h-5.453l-4.108 4.104-4.106-4.104h-5.376v-5.376l-3.98-3.984 3.98-3.982v-5.815h5.815l3.751-3.753 3.75 3.753h5.73v5.73l3.981 3.983zm.837-8.34v-6.268h-6.266l-4.1-4.1-4.1 4.1h-6.353v6.352l-4.361 4.361 4.361 4.362v5.88h5.877l4.492 4.49 4.49-4.49h5.959v-5.966l4.361-4.361z"/></g></g><g><g><path fill="#13110c" d="M132.04 44.984l.09-.162a.559.559 0 0 0 .048-.352l-.013-.145.089.072c.097.083.192.162.289.225l.064.045zm10.985-7.88a.021.021 0 0 0-.013-.028.02.02 0 0 0-.026.013 11.9 11.9 0 0 1-.323.824c-.08.11-.183.202-.3.272a.908.908 0 0 0 .186-.435c.168-.307.3-.632.392-.97a.021.021 0 0 0-.014-.025.023.023 0 0 0-.026.014 4.686 4.686 0 0 1-.333.865c.013-.124.018-.249.014-.374.141-.29.245-.596.309-.912a.02.02 0 0 0-.016-.024.023.023 0 0 0-.028.014 3.94 3.94 0 0 1-.266.827v-.221-.11c.11-.372.2-.75.268-1.13a.021.021 0 0 0-.018-.025.02.02 0 0 0-.016.003.02.02 0 0 0-.008.015c-.076.412-.177.82-.3 1.221a1.64 1.64 0 0 1-.1.134c-.017.021-.031.037-.04.052l-.148.218c.116-.359.234-.763.3-1.076a.021.021 0 0 0-.017-.026.02.02 0 0 0-.026.017c-.078.36-.221.841-.347 1.234-.09.14-.16.293-.209.454a1.206 1.206 0 0 1 .021-.469c.143-.373.264-.753.365-1.139a.023.023 0 0 0-.013-.026.024.024 0 0 0-.027.015c-.12.46-.27.91-.45 1.35v.012a1.972 1.972 0 0 0-.31.646 2.424 2.424 0 0 1 .214-1.005 8.713 8.713 0 0 1-7.683 5.152h-.274a8.723 8.723 0 0 1-8.373-6.3c-.11-.162-.262-.31-.417-.31a.278.278 0 0 0-.203.113c-.3.323.079.697.126.734a.213.213 0 0 1 .061.177c-.01.051-.048.09-.123.117a.323.323 0 0 0-.218.252.43.43 0 0 0 .028.204l.04.095-.102-.014a.483.483 0 0 0-.077 0 .323.323 0 0 0-.225.068.102.102 0 0 0-.032.095c.03.245.355.484.355.484a.162.162 0 0 0 .13.188c.043.014.088.02.134.02h.058a.738.738 0 0 0 .089-.01c-.162.151-.054.854.646.925a.562.562 0 0 0 .101 0c-.323.44.23.666.227.843 0 .073-.09.147-.162.193-.11.064-.239.11-.239.274 0 .192.11.381.554.381.162 0 .323.013.323.123 0 .047-.061.097-.123.14-.061.041-.172.114-.172.21 0 .025 0 .238.323.343l.132.046-.128.06a.195.195 0 0 0-.126.174c0 .097.081.19.26.261.131.05.268.081.408.09v.022l.016.02a.147.147 0 0 0 .103.057h.055v.057a.249.249 0 0 0 .09.183 1.7 1.7 0 0 0 .236.198l.14.097h-.17a.548.548 0 0 0-.53.37.34.34 0 0 0 .06.271c.077.093.189.152.31.162h.03a.969.969 0 0 0 .223-.037c.14-.036.19-.036.25.15.048.149.091.255.23.255h.087s-.179.52.037.711c.028.017.061.026.094.024.118 0 .275-.147.4-.297a.514.514 0 0 1 .322-.218h.034a.566.566 0 0 0 .183.065c.07.015.127.069.147.139a.189.189 0 0 1-.063.198.502.502 0 0 0-.136.347.414.414 0 0 0 .11.31.4.4 0 0 0 .295.117c.137.01.27-.045.357-.15a.518.518 0 0 0 .126-.356.173.173 0 0 1 .031-.143.113.113 0 0 1 .09-.04c.036 0 .07.013.1.035.07.059.156.094.248.1a.292.292 0 0 0 .182-.068.237.237 0 0 0 .096-.12l.03-.087.065.066a.3.3 0 0 0 .22.094.351.351 0 0 0 .218-.064l.085-.065v.121c.005.06.036.113.085.147.116.073.323-.022.323-.022s-.314.182-.356.218a.084.084 0 0 0-.026.074c.01.103.196.14.323.14a.59.59 0 0 0 .126-.013.742.742 0 0 0 .162-.064c.289-.214.601-.393.932-.533a9.38 9.38 0 0 0-.827.54.162.162 0 0 0-.06.15c.028.12.276.142.347.142a.924.924 0 0 0 .475-.142l.015-.017a2.59 2.59 0 0 1 .485-.415l.029-.017.03.017c.183.104.56.323.763.446.022.015.045.026.064.037l.068.044c.03.018.065.029.1.03.057.009.113.013.17.014.35 0 .6-.141.606-.264a.103.103 0 0 0-.071-.106 54.14 54.14 0 0 1-1.162-.545l.34.034h.027c.348.113.679.273.984.475h.01c.06.029.126.043.193.042.133 0 .356-.055.378-.17a.145.145 0 0 0-.084-.151l-1.308-.52.029-.106c.723.31 1.463.58 2.216.808l-.064.055a1.863 1.863 0 0 1-.916.323c.175.037.354.053.533.049a2.906 2.906 0 0 0 1.197-.285 3.84 3.84 0 0 1 .113-.586l.011-.04.355-.008-.072.095a1.07 1.07 0 0 0-.144.273 4.67 4.67 0 0 0 .792-.435c.117-.14.2-.306.242-.484a.114.114 0 0 0-.03-.044c-.53.062-1.064.081-1.597.058l.113-.068a4.865 4.865 0 0 0 1.595-.29c.082-.03.161-.055.248-.076.357-.105.7-.255 1.018-.448a.023.023 0 0 0 .008-.03.024.024 0 0 0-.029 0 3.862 3.862 0 0 1-1.345.52 1.802 1.802 0 0 1-.773-.162 3.525 3.525 0 0 0 1.842-.547c.335-.136.647-.322.926-.551a.021.021 0 0 0 0-.031.024.024 0 0 0-.031 0c-.22.182-.46.335-.719.456-.317.093-.65.116-.977.067.42-.077.82-.242 1.172-.484.417-.21.812-.459 1.181-.743a.02.02 0 0 0 0-.03.024.024 0 0 0-.032 0 7.28 7.28 0 0 1-.945.618c-.253.05-.513.05-.766 0a2.292 2.292 0 0 0 1.336-.626c.307-.197.595-.422.86-.673a.02.02 0 0 0 0-.03.023.023 0 0 0-.031 0 6 6 0 0 1-.751.602c-.27.09-.557.123-.84.093a1.87 1.87 0 0 0 1.13-.62 6.13 6.13 0 0 0 .715-.669.021.021 0 0 0 0-.029.021.021 0 0 0-.031 0c-.166.18-.342.35-.528.509a.918.918 0 0 1-.485.12 2.29 2.29 0 0 0 .83-.713c.323-.337.612-.705.863-1.098a.021.021 0 0 0 0-.03.021.021 0 0 0-.03 0 7.112 7.112 0 0 1-.808 1.035c-.124.03-.251.046-.378.051.227-.095.357-.373.62-.744.25-.281.47-.588.656-.916a.021.021 0 0 0-.008-.03.02.02 0 0 0-.028-.001c-.147.261-.317.51-.507.742a.518.518 0 0 1-.299.151c.188-.208.344-.443.464-.698.183-.249.335-.52.45-.807a.021.021 0 0 0 0-.016.02.02 0 0 0-.01-.012.02.02 0 0 0-.017-.001.02.02 0 0 0-.011.011 3.452 3.452 0 0 1-.464.82.72.72 0 0 1-.24.146c.231-.263.387-.583.452-.927.146-.304.274-.616.383-.935"/></g></g><g><g><path fill="#005641" d="M127.17 41.587c0-.122.097-.204.199-.285.035-.027.043-.045.043-.048 0-.003-.01-.058-.161-.181a.631.631 0 0 1-.162-.186 5.175 5.175 0 0 1-.308-.297c-.066.01-.132.015-.199.014a2.884 2.884 0 0 1-.52-.06.023.023 0 0 1-.018-.028.023.023 0 0 1 .026-.015c.22.052.447.069.672.052a6.986 6.986 0 0 1-.785-1.03.026.026 0 0 1 .01-.028.02.02 0 0 1 .029 0c.224.359.48.696.767 1.008a3.636 3.636 0 0 1 .021-.703.024.024 0 0 1 .027-.02.02.02 0 0 1 .017.023c-.032.249-.037.5-.016.75.08.087.161.161.239.236a.44.44 0 0 1 .208-.51.542.542 0 0 1 .334-.085 1.13 1.13 0 0 0-.047-.371 2.196 2.196 0 0 1-.277-.298.485.485 0 0 0-.39.058c-.09.1-.323.228-.446-.03-.135-.296-.258-.46-.554-.288-.295.173-.143.485 0 .616.144.13.336.294.084.44-.205.117-.342.132-.342.29 0 .116.052.286.528.286.188 0 .414.027.4.211-.014.231-.34.2-.342.344-.001.146.162.303.56.324a.657.657 0 0 0 .411-.117.199.199 0 0 1-.014-.089"/></g></g><g><g><path fill="#bc9d00" d="M133.75 25.035a8.712 8.712 0 0 0-8.712 8.714c0 4.811 3.9 8.711 8.711 8.711a8.71 8.71 0 0 0 8.712-8.713c0-4.811-3.9-8.712-8.711-8.712"/></g></g><g><g><path fill="#00b4eb" d="M133.76 25.662a8.12 8.12 0 0 1 2.346.347c.254.076.501.162.747.268.245.107.484.215.717.341.234.124.462.26.682.409a7.955 7.955 0 0 1 1.759 1.593 8.243 8.243 0 0 1 1.488 2.782 7.987 7.987 0 0 1 .308 1.553 8.161 8.161 0 0 1-.116 2.37 8.147 8.147 0 0 1-.46 1.519 8.816 8.816 0 0 1-.341.715c-.126.231-.26.46-.407.68a7.352 7.352 0 0 1-.472.638 6.77 6.77 0 0 1-.533.587 7.417 7.417 0 0 1-.588.534 7.596 7.596 0 0 1-.638.472 7.64 7.64 0 0 1-1.399.748c-.244.1-.485.19-.747.268-.261.078-.51.139-.767.192a8.087 8.087 0 0 1-3.927-.192 6.787 6.787 0 0 1-.748-.268 7.522 7.522 0 0 1-1.397-.748 7.197 7.197 0 0 1-.638-.472 7.588 7.588 0 0 1-.59-.534 7.607 7.607 0 0 1-.533-.587 7.829 7.829 0 0 1-.879-1.318 9.344 9.344 0 0 1-.34-.715 7.492 7.492 0 0 1-.269-.748 8.263 8.263 0 0 1-.308-1.554 8.633 8.633 0 0 1 0-1.586 8.252 8.252 0 0 1 .577-2.302c.106-.246.214-.485.34-.716a7.858 7.858 0 0 1 1.412-1.905 8.054 8.054 0 0 1 1.908-1.415c.234-.124.473-.239.717-.34a8.113 8.113 0 0 1 3.095-.615"/></g></g><g><g><path fill="#e63337" d="M133.76 26.901c.223 0 .446.011.668.034a6.758 6.758 0 0 1 2.552.772 6.894 6.894 0 0 1 2.469 2.236 7.157 7.157 0 0 1 .632 1.184c.085.207.16.418.225.635a6.612 6.612 0 0 1 .26 1.311c.023.224.033.448.033.672a6.656 6.656 0 0 1-.131 1.336 5.9 5.9 0 0 1-.162.646 6.98 6.98 0 0 1-.858 1.816 6.529 6.529 0 0 1-.402.538 6.61 6.61 0 0 1-1.49 1.349 6.623 6.623 0 0 1-1.184.633 6.759 6.759 0 0 1-2.614.519 6.485 6.485 0 0 1-1.338-.13 6.984 6.984 0 0 1-1.28-.389 7.199 7.199 0 0 1-.608-.287c-.2-.105-.39-.222-.574-.346a8.492 8.492 0 0 1-.54-.399 5.758 5.758 0 0 1-.498-.452 5.78 5.78 0 0 1-.451-.498 6.475 6.475 0 0 1-.746-1.115 6.378 6.378 0 0 1-.288-.609 6.627 6.627 0 0 1-.388-1.276 7.983 7.983 0 0 1-.098-.664 7.186 7.186 0 0 1 0-1.344c.02-.223.058-.447.098-.665.04-.218.1-.438.162-.646a6.633 6.633 0 0 1 .514-1.241 6.526 6.526 0 0 1 .746-1.12c.141-.173.292-.339.45-.497a6.3 6.3 0 0 1 .498-.45 7.212 7.212 0 0 1 1.115-.746 6.698 6.698 0 0 1 1.89-.675c.22-.045.442-.077.665-.098.224-.023.448-.034.672-.034"/></g></g><g><g><path fill="#5ca62c" d="M133.76 28.138a5.548 5.548 0 0 1 2.145.432c.34.138.664.311.969.515.305.205.59.439.851.698a5.591 5.591 0 0 1 1.215 1.82c.143.339.251.69.323 1.05a5.468 5.468 0 0 1 0 2.188 5.667 5.667 0 0 1-.84 2.023 5.582 5.582 0 0 1-1.55 1.547c-.304.205-.629.38-.968.52a5.526 5.526 0 0 1-3.24.323 5.492 5.492 0 0 1-1.05-.323 5.424 5.424 0 0 1-.969-.52 5.591 5.591 0 0 1-2.066-2.517 5.41 5.41 0 0 1-.323-1.053 5.62 5.62 0 0 1 0-2.188c.072-.36.18-.711.323-1.05a5.645 5.645 0 0 1 1.215-1.82c.26-.26.546-.493.851-.698.305-.204.63-.377.97-.515a5.544 5.544 0 0 1 2.144-.431"/></g></g><g><g><path fill="#bc9d00" d="M133.61 42.619c.11.107.184.245.212.395.162-.092.378-.34.307-.455-.055-.087-.323-.068-.517.058"/></g></g><g><g><path fill="#bc9d00" d="M133.347 42.77a.053.053 0 0 0-.051.055.052.052 0 0 0 .051.055.053.053 0 0 0 .055-.055.053.053 0 0 0-.055-.054"/></g></g><g><g><path fill="#bc9d00" d="M133.553 42.66a.053.053 0 0 0-.052-.056.055.055 0 1 0 0 .11.055.055 0 0 0 .052-.055"/></g></g><g><g><path fill="#bc9d00" d="M133.532 42.79a.055.055 0 0 0-.055.053c0 .03.024.055.055.055a.054.054 0 0 0 .053-.055.053.053 0 0 0-.053-.053"/></g></g><g><g><path fill="#bc9d00" d="M133.664 42.924a.053.053 0 0 0 0 .107.053.053 0 0 0 0-.107"/></g></g><g><g><path fill="#bc9d00" d="M133.48 42.953a.052.052 0 0 0-.052.055.051.051 0 0 0 .052.052.053.053 0 1 0 0-.107"/></g></g><g><g><path fill="#bc9d00" d="M131.625 44.646c-.116.113-.187.34-.079.412.133.086.356-.162.356-.162a.953.953 0 0 0-.277-.252"/></g></g><g><g><path fill="#bc9d00" d="M131.86 44.546a.055.055 0 0 0-.055-.055.054.054 0 0 0-.055.055.055.055 0 0 0 .11 0"/></g></g><g><g><path fill="#bc9d00" d="M131.977 44.493a.053.053 0 0 0-.051.054.053.053 0 0 0 .052.055.053.053 0 0 0 .053-.055.053.053 0 0 0-.054-.055"/></g></g><g><g><path fill="#bc9d00" d="M131.955 44.672a.053.053 0 0 0-.052.055c0 .03.022.054.052.055a.055.055 0 0 0 0-.11"/></g></g><g><g><path fill="#bc9d00" d="M128.233 44.299a.614.614 0 0 0-.011.615c.106.087.44-.29.484-.397a.766.766 0 0 0-.468-.218"/></g></g><g><g><path fill="#bc9d00" d="M128.424 44.186c0 .028.023.051.051.051a.052.052 0 0 0 .055-.051.053.053 0 1 0-.106 0"/></g></g><g><g><path fill="#bc9d00" d="M128.585 44.139a.055.055 0 0 0 .11 0 .055.055 0 1 0-.11 0"/></g></g><g><g><path fill="#bc9d00" d="M128.693 44.257a.053.053 0 1 0 0 .107.052.052 0 0 0 .052-.052.051.051 0 0 0-.052-.055"/></g></g><g><g><path fill="#bc9d00" d="M128.852 44.27a.052.052 0 0 0-.054.051.053.053 0 0 0 .054.055.053.053 0 0 0 .055-.055.052.052 0 0 0-.055-.051"/></g></g><g><g><path fill="#bc9d00" d="M128.852 44.097a.053.053 0 0 0-.054-.055.054.054 0 0 0-.055.055c0 .03.025.055.055.055.03-.001.054-.026.054-.055"/></g></g><g><g><path fill="#bc9d00" d="M128.567 43.914a.053.053 0 0 0-.053.055.053.053 0 0 0 .053.055.052.052 0 0 0 .052-.055.053.053 0 0 0-.052-.055"/></g></g><g><g><path fill="#bc9d00" d="M126.438 42.087c0 .13.312.25.582.259a1.054 1.054 0 0 0 0-.46c-.234-.017-.577.072-.582.201"/></g></g><g><g><path fill="#bc9d00" d="M127.15 42.34a.052.052 0 0 0-.053.054c0 .029.023.053.052.053a.053.053 0 0 0 .052-.053.052.052 0 0 0-.052-.055"/></g></g><g><g><path fill="#bc9d00" d="M127.301 42.249a.053.053 0 0 0-.055.053.053.053 0 0 0 .055.055.052.052 0 0 0 .052-.055.052.052 0 0 0-.052-.053"/></g></g><g><g><path fill="#bc9d00" d="M127.453 42.15a.051.051 0 0 0-.052.055.053.053 0 1 0 .107 0 .053.053 0 0 0-.055-.055"/></g></g><g><g><path fill="#bc9d00" d="M127.17 42.126a.053.053 0 0 0-.053.055c0 .03.024.053.053.053.03 0 .054-.023.055-.053a.055.055 0 0 0-.055-.055"/></g></g><g><g><path fill="#bc9d00" d="M127.327 42.016a.053.053 0 0 0-.053.055c0 .03.023.054.053.055.03 0 .054-.025.055-.055a.054.054 0 0 0-.055-.055"/></g></g><g><g><path fill="#bc9d00" d="M127.186 41.885a.054.054 0 0 0-.053.055.054.054 0 0 0 .053.055.053.053 0 0 0 .052-.055.053.053 0 0 0-.052-.055"/></g></g><g><g><path fill="#bc9d00" d="M124.896 37.75c-.184-.162-.527-.152-.57-.08-.044.07.138.304.313.43.105-.1.192-.219.257-.35"/></g></g><g><g><path fill="#bc9d00" d="M124.73 38.16a.055.055 0 0 0-.054.055.053.053 0 1 0 .107 0 .053.053 0 0 0-.052-.055"/></g></g><g><g><path fill="#bc9d00" d="M124.894 38.16a.053.053 0 0 0-.053.055.053.053 0 0 0 .053.055.055.055 0 1 0 0-.11"/></g></g><g><g><path fill="#bc9d00" d="M124.883 38.083c.03-.001.052-.026.051-.055a.052.052 0 0 0-.051-.052.053.053 0 1 0 0 .107"/></g></g><g><g><path fill="#bc9d00" d="M125.075 37.983a.055.055 0 0 0-.055.051c0 .03.025.055.055.055s.053-.025.052-.055a.052.052 0 0 0-.052-.051"/></g></g><g><g><path fill="#bc9d00" d="M125.077 37.837a.055.055 0 1 0-.11 0 .055.055 0 0 0 .11 0"/></g></g><g><g><path fill="#bc9d00" d="M140.65 30.574c.085 0 .166.034.227.094a.323.323 0 0 1 0 .452.323.323 0 0 1-.226.094.323.323 0 0 1-.32-.32c-.001-.085.033-.166.093-.226a.307.307 0 0 1 .227-.094"/></g></g><g><g><path fill="#bc9d00" d="M136.738 27.153a.323.323 0 0 0 .171-.417.323.323 0 0 0-.416-.174.323.323 0 0 0-.173.418.323.323 0 0 0 .418.173"/></g></g><g><g><path fill="#bc9d00" d="M131.028 27.153a.323.323 0 0 0 .172-.417.323.323 0 0 0-.418-.174.323.323 0 0 0-.173.418.323.323 0 0 0 .419.173"/></g></g><g><g><path fill="#bc9d00" d="M126.87 30.574c.084 0 .166.034.226.094s.094.141.094.226a.323.323 0 0 1-.094.227.323.323 0 0 1-.226.093.323.323 0 0 1-.32-.32c-.001-.085.033-.166.093-.226a.312.312 0 0 1 .227-.094"/></g></g><g><g><path fill="#bc9d00" d="M126.87 36.282c.085-.001.166.033.226.093a.31.31 0 0 1 .094.227.323.323 0 0 1-.094.226.323.323 0 0 1-.226.093.323.323 0 0 1-.32-.32.31.31 0 0 1 .093-.226.31.31 0 0 1 .227-.093"/></g></g><g><g><path fill="#bc9d00" d="M130.784 40.343a.323.323 0 0 0-.175.417c.069.162.255.24.419.174a.323.323 0 0 0 .174-.417.323.323 0 0 0-.418-.174"/></g></g><g><g><path fill="#bc9d00" d="M136.493 40.343a.323.323 0 0 0-.175.417c.068.162.255.24.418.174a.323.323 0 0 0 .173-.417.323.323 0 0 0-.416-.174"/></g></g><g><g><path fill="#bc9d00" d="M140.65 36.282c.085-.001.167.033.227.093a.31.31 0 0 1 .093.227.323.323 0 0 1-.093.226.323.323 0 0 1-.226.093.308.308 0 0 1-.227-.093.323.323 0 0 1-.093-.227.31.31 0 0 1 .093-.226.307.307 0 0 1 .227-.093"/></g></g><g><g><path fill="#bc9d00" d="M141.838 33.702l-4.052-1.651 1.651-4.052-4.038 1.697-1.7-4.039-1.649 4.052L128 28.058l1.696 4.038-4.038 1.696 4.05 1.653-1.65 4.053 4.038-1.698 1.698 4.038 1.651-4.05 4.051 1.65L137.8 35.4z"/></g></g><g><g><path fill="#fff" d="M135.284 37.396l3.666 1.494-1.533-3.646 3.645-1.534-3.665-1.494 1.494-3.664-3.646 1.533-1.534-3.646-1.494 3.664-3.666-1.494 1.535 3.645-3.646 1.535 3.664 1.494-1.493 3.666 3.646-1.535 1.533 3.646z"/></g></g><g><g><path fill="#e63337" d="M134.158 35.236c0-1.487-.612-1.872-.612-3.345a5.066 5.066 0 0 1 .333-1.68c-.13 1.49 1.13 2.44 1.13 4.426 0 1.258-.494 1.984-.859 1.984-.234 0-.223-.152-.342-.152-.12 0-.228.18-.475.18-.247 0-1.05-.398-1.18-2.16-.093.378-.076.776.05 1.145a2.838 2.838 0 0 1 .257-3.07 5.512 5.512 0 0 0 .3 2.908c.072.176.203.273.322.176.12-.097 0-.274-.087-.484a4.001 4.001 0 0 1 .402-4.123c.005 1.097.157 2.189.453 3.246 0 .725-.438 1.697-.018 1.697.268 0 .323-.507.323-.748"/></g></g><g><g><path fill="#e63337" d="M134.683 36.314a2.922 2.922 0 0 0 1.183-2.299c0-1.247-1.257-2.261-1.464-2.979 0 1.149.785 1.876.785 3.423 0 1.432-.504 1.853-.504 1.853"/></g></g><g><g><path fill="#ffda00" d="M140.11 41.816a2.004 2.004 0 0 0-.235-.013 3.65 3.65 0 0 1-.421.208.252.252 0 0 0 0 .123 3.51 3.51 0 0 0 .659-.323"/></g></g><g><g><path fill="#ffda00" d="M141.06 40.467a.646.646 0 0 0-.193.076.383.383 0 0 0-.183.265 4.65 4.65 0 0 0 .377-.341"/></g></g><g><g><path fill="#ffda00" d="M140.778 39.756a.494.494 0 0 0 .097-.255 9.65 9.65 0 0 0-.304.355.228.228 0 0 0 .207-.1"/></g></g><g><g><path fill="#ffda00" d="M138.23 43.157c.181-.04.358-.095.53-.162-.066-.032-.122-.068-.177-.1-.251.11-.523.165-.797.161h-.06c.159.072.333.108.508.104"/></g></g><g><g><path fill="#005641" d="M131.244 44.494a.645.645 0 0 1-.4-.202s-.091-.087-.162-.03c-.071.056-.018.161.018.226a.78.78 0 0 1 .106.205c.058.084.193.205.288.189.173-.03.284-.116.242-.417a.162.162 0 0 1-.095.03"/></g></g><g><g><path fill="#005641" d="M126.391 38.898c.2.162.21.246.162.324-.048.077-.126.282.057.373.15.072.29-.215.337-.396a7.804 7.804 0 0 1-.494-.679.218.218 0 0 0-.068.38"/></g></g><g><g><path fill="#005641" d="M128.012 40.633c.02.052.039.08.051.08a.422.422 0 0 0-.129-.45.247.247 0 0 0-.249-.03c.155.088.27.232.323.402"/></g></g><g><g><path fill="#005641" d="M132.653 44.244c-.034-.383-.433-.01-.433-.01.153.144.315.277.484.4.038-.017.036-.017.072-.035l-.028-.052a.731.731 0 0 1-.094-.303"/></g></g><g><g><path fill="#005641" d="M126.023 38.278a2 2 0 0 0-.664-.906l-.037-.03a.023.023 0 0 1 0-.031.021.021 0 0 1 .03 0l.035.032c.218.171.403.383.543.623a6.444 6.444 0 0 0-.765-1.471.021.021 0 0 1 0-.03.024.024 0 0 1 .033 0 6.16 6.16 0 0 1 .875 1.828c.176.255.026-.37.026-.37a8.523 8.523 0 0 1-.636-1.469c-.096-.261-.443-.736-.663-.447-.143.19-.151.34.175.709a.217.217 0 0 1-.066.336c-.336.15-.252.352-.112.452.095.071.494.341.477.564-.018.223-.275.255-.268.533.019.329.283.59.612.607.337 0 .562-.432.402-.924"/></g></g><g><g><path fill="#005641" d="M127.926 40.638c-.087-.213-.299-.5-.628-.287a.392.392 0 0 0 0 .659c.203.161.265.237.1.365s-.218.247-.018.42.335.296.247.417c-.145.2-.542.294-.307.523.095.098.204.182.323.249v-.04a.352.352 0 0 1 .088-.269.245.245 0 0 1 .177-.074c.054 0 .106.017.15.045a.366.366 0 0 0 .193.06c.05 0 .1-.012.144-.037a.162.162 0 0 0 .072-.1 2.033 2.033 0 0 1-.523-.186.024.024 0 0 1-.011-.03.023.023 0 0 1 .03 0c.161.08.331.142.507.182h.009a.932.932 0 0 1 .043-.183 4.322 4.322 0 0 0-.323-.628 1.42 1.42 0 0 0-.363-.092 3.844 3.844 0 0 1-.346-.07.024.024 0 0 1-.018-.025.026.026 0 0 1 .026-.017c.116.03.237.052.344.071.11.016.217.039.323.07a8.746 8.746 0 0 0-.743-1.01.032.032 0 0 1 0-.03.021.021 0 0 1 .03 0c.272.32.52.66.744 1.016a2.18 2.18 0 0 1 .092-.697.02.02 0 0 1 .03-.008.021.021 0 0 1 .008.03c-.07.242-.099.494-.087.746.116.192.218.392.304.599a.502.502 0 0 1 .147-.152.288.288 0 0 1 .107-.045v-.336c0-.012.009-.022.02-.023.013.001.022.01.022.023v.323h.026a1.1 1.1 0 0 1 .697.456.527.527 0 0 1 .136-.015c.123 0 .15-.013.162-.063.011-.05 0-.1-.265-.218l-.107-.052a.418.418 0 0 1-.247-.275.485.485 0 0 1 .082-.356.362.362 0 0 0-.442-.248c-.116.023-.273.068-.323-.185-.05-.254-.13-.485-.323-.378-.14.084-.238.1-.323-.114"/></g></g><g><g><path fill="#005641" d="M131.795 42.947c.039-.206-.024-.735-.448-.574-.337.13-.389.104-.411-.12-.023-.222-.282-.323-.495-.323-.213 0-.203.057-.282-.069a2.594 2.594 0 0 0-.574-.38.272.272 0 0 0-.147.081c-.118.149-.212.422.068.556.28.134.494.134.438.35-.068.26-.367.05-.435.248a.337.337 0 0 0 .45.34c.27-.1.645-.12.665.094.03.344-.646.314-.302.711.161.189.538.152.807.115a.484.484 0 0 0 .3-.202 1.702 1.702 0 0 0-.073-.278.764.764 0 0 0-.551-.028.024.024 0 0 1-.031-.01.023.023 0 0 1 .013-.028.782.782 0 0 1 .548.016 1.754 1.754 0 0 0-.682-.772c-.164.03-.33.049-.496.053h-.082a.021.021 0 0 1-.021-.023.024.024 0 0 1 .024-.02c.175.004.35-.01.523-.044l-.058-.042a1.857 1.857 0 0 1-.769-.82.024.024 0 0 1 .013-.027.023.023 0 0 1 .028.012c.16.34.422.623.75.807l.083.058c0-.173-.035-.344-.103-.504a.024.024 0 0 1 0-.03.027.027 0 0 1 .032 0c.072.176.109.364.108.554.275.172.498.416.646.704 0-.05-.014-.115-.024-.182a3.531 3.531 0 0 1-.047-.467.02.02 0 0 1 .006-.016.02.02 0 0 1 .015-.005.02.02 0 0 1 .021.021c.007.154.023.307.049.459.017.1.027.202.03.305.033.082.057.168.073.255a.629.629 0 0 0 .04-.074c.062-.14.131-.296.193-.42.048-.086.083-.178.105-.273"/></g></g><g><g><path fill="#005641" d="M131.28 44.006c-.156.056-.32.082-.485.075a.688.688 0 0 1-.5-.162l-.019-.02c-.053.05-.102.105-.146.162a1.249 1.249 0 0 0 .155.63.02.02 0 0 1-.005.013h-.013a.023.023 0 0 1-.018-.01 1.216 1.216 0 0 1-.162-.581 2.54 2.54 0 0 0-.395 1.147c0 .005 0 .01-.004.015a.017.017 0 0 1-.014.006.023.023 0 0 1-.021-.023c.033-.4.161-.788.373-1.13-.108.077-.29.205-.399.3a.021.021 0 0 1-.03 0 .024.024 0 0 1 0-.03c.161-.141.476-.356.495-.37a1.83 1.83 0 0 1 .154-.175.305.305 0 0 1-.086-.223c.013-.133.13-.212.23-.278a.472.472 0 0 0 .087-.061.446.446 0 0 0-.42-.2l-.036.007a.443.443 0 0 1-.135.031c-.134.07-.084.213.013.273a.183.183 0 0 1 0 .323 1.283 1.283 0 0 1-.551.196c-.268.047-.38.153-.386.286-.018.29.337.18.436.29a.294.294 0 0 1-.039.437.363.363 0 0 0 0 .544.352.352 0 0 0 .546-.176c.052-.236-.015-.378.162-.44.176-.06.36.236.599.083.239-.154-.08-.39-.09-.593a.178.178 0 0 1 .308-.145c.121.108.304.277.443.161.113-.095.087-.255-.052-.37"/></g></g><g><g><path fill="#005641" d="M134.103 44.64a.45.45 0 0 0-.224-.701c-.323-.162.294-.382.073-.62-.222-.237-.354-.122-.737-.146-.383-.024-.118-.323-.344-.595-.108-.13-.272-.12-.45-.035a2.892 2.892 0 0 0-.783.969c.109-.024.21-.042.304-.061.275-.133.527-.308.746-.52a.023.023 0 0 1 .031 0 .02.02 0 0 1 0 .029 2.78 2.78 0 0 1-.638.468c.258-.062.528-.049.778.037.287.082.588.095.88.039.011-.005.023 0 .028.01a.024.024 0 0 1-.011.029c-.246.056-.5.056-.746 0 .292.207.547.462.754.754a.024.024 0 0 1 0 .033h-.011a.02.02 0 0 1-.016 0 3.086 3.086 0 0 0-.747-.742.523.523 0 0 1 .156.5.02.02 0 0 1-.015.006.02.02 0 0 1-.021-.021.527.527 0 0 0-.263-.555 1.44 1.44 0 0 0-.824-.022c.11.055.202.139.268.242a.023.023 0 0 1-.01.03.036.036 0 0 1-.02-.009.62.62 0 0 0-.301-.252c-.104.018-.212.044-.331.068a1.099 1.099 0 0 0-.1.34c.01.107.065.206.151.27.433.324.472-.13.834-.172.294-.036.161.261.31.507s.31.048.418-.03c.109-.08.173-.136.286.087a.363.363 0 0 0 .59.077"/></g></g><g><g><path fill="#005641" d="M129.385 43.837c.249-.042.462-.121.462-.264 0-.093-.162-.145-.117-.323a.258.258 0 0 0-.02-.106h-.013a2.135 2.135 0 0 0-.417-.052 1.94 1.94 0 0 0-.425.422.024.024 0 0 1-.018.008.015.015 0 0 1-.013 0 .021.021 0 0 1 0-.03c.112-.147.242-.28.386-.395-.237.01-.472.057-.694.142a1.927 1.927 0 0 1-.341.485h-.013a.026.026 0 0 1-.018 0 .024.024 0 0 1 0-.033c.123-.13.229-.275.314-.433-.22.085-.454.13-.69.134-.064 0-.127-.002-.19-.01a.021.021 0 0 1-.022-.024.021.021 0 0 1 .024-.017c.267.029.536-.005.787-.097a1.618 1.618 0 0 1-.216-.108c-.068-.038-.14-.078-.209-.109a.02.02 0 0 1-.011-.027.024.024 0 0 1 .027-.013c.072.032.143.074.212.11.083.06.179.1.28.118l.029-.01c.229-.09.471-.14.717-.15l-.452-.284a.021.021 0 0 1 0-.031.023.023 0 0 1 .03 0s.386.245.512.323c.12.002.239.015.356.039a.434.434 0 0 1-.131-.126.368.368 0 0 1-.068-.309.583.583 0 0 1 .061-.08c-.19-.24-.57-.495-.741-.374-.275.194-.139.425-.323.52a.387.387 0 0 1-.419-.013.2.2 0 0 0-.3.196c0 .221.044.221-.142.242-.186.021-.512.04-.564.314-.052.273.221.353.323.36.226.014.441-.162.514.03.072.193.079.345.223.338.294-.01.323-.338.55-.352.13.025.246.099.324.205a.637.637 0 0 1 .439-.205"/></g></g><g><g><path fill="#005641" d="M135.62 45.029c-.472-.162-1.08-.422-1.08-.422a.428.428 0 0 1-.186.118c.308.149.906.422.906.422a.443.443 0 0 1 .36-.118"/></g></g><g><g><path fill="#005641" d="M135.094 45.402c-.558-.055-.87.231-.593.268.547.071.91-.237.593-.268"/></g></g><g><g><path fill="#005641" d="M135.819 45.13c-.252-.095-.559.078-.4.162.214.112.647-.068.4-.161"/></g></g><g><g><path fill="#005641" d="M134.906 45.303c-.2-.087-.596-.264-.969-.439a2.649 2.649 0 0 0-.388.24c.323.16.627.345.743.411a.742.742 0 0 1 .613-.212"/></g></g><g><g><path fill="#ffda00" d="M141.11 40.144c-.12.14-.247.272-.38.399-.26.182-.601.176-.792.313-.302.225-.111.348.108.298.162-.036.323-.162.647-.535a5.31 5.31 0 0 0 .43-.443.23.23 0 0 0 .284.131c.22-.056.332-.13.75-.757-.16.085-.707.104-.928.323a.323.323 0 0 0-.117.268"/></g></g><g><g><path fill="#ffda00" d="M134.77 43.851a9.73 9.73 0 0 0-.615.212.57.57 0 0 1 .086.139c.252-.107.484-.196.681-.262a.263.263 0 0 1-.153-.087"/></g></g><g><g><path fill="#ffda00" d="M134.09 43.325c.21-.28.443-.54.698-.777-.339.126-.65.317-.914.563.06.036.115.08.161.133.023.024.041.052.055.082"/></g></g><g><g><path fill="#ffda00" d="M142.163 38.894c.214-.223.358-.504.415-.808-.225.278-.474.281-.638.459-.314.34.027.531.22.357"/></g></g><g><g><path fill="#ffda00" d="M141.867 38.388c.043-.15-.055-.462-.015-.701-.214.23-.31.544-.263.854.087.196.234 0 .278-.161"/></g></g><g><g><path fill="#ffda00" d="M141.411 39.065c.175-.184-.092-.58.026-1.095a3.968 3.968 0 0 0-.386.78c-.127.688.186.499.36.323"/></g></g><g><g><path fill="#ffda00" d="M141.722 39.591c.177-.014.395-.22.625-.646-.181.21-.663.128-.808.283a.213.213 0 0 0 .174.368"/></g></g><g><g><path fill="#ffda00" d="M139.392 41.103a.97.97 0 0 1 .19-.659c-.106.078-.53.41-.53.739 0 .447.313.179.339-.08"/></g></g><g><g><path fill="#ffda00" d="M138.754 41.687c.216-.214.068-.433.281-.845a1.71 1.71 0 0 0-.5.581c-.136.323 0 .475.22.264"/></g></g><g><g><path fill="#ffda00" d="M138.226 42.07c.271-.28.084-.485.252-.824a2.631 2.631 0 0 0-.485.536c-.15.278-.04.565.234.287"/></g></g><g><g><path fill="#ffda00" d="M137.578 42.5c.312-.28.11-.571.494-1.014a2.26 2.26 0 0 0-.807.761c-.136.273-.01.537.307.252"/></g></g><g><g><path fill="#ffda00" d="M136.877 42.845c.221-.218.247-.596.517-1.063-.333.18-.626.426-.86.724-.239.395.125.559.345.337"/></g></g><g><g><path fill="#ffda00" d="M136.014 43.268c.438-.426.241-.564.582-1.13-.371.221-.69.52-.935.876-.122.19-.04.634.353.252"/></g></g><g><g><path fill="#ffda00" d="M134.851 43.464c-.15.323.121.484.348.273.226-.212.313-.752.781-1.41a3.134 3.134 0 0 0-1.13 1.13"/></g></g><g><g><path fill="#ffda00" d="M134.515 43.832c.378-.39.278-.704.88-1.34a2.908 2.908 0 0 0-1.334 1.094c-.177.37.2.504.453.246"/></g></g><g><g><path fill="#ffda00" d="M133.354 44.496s-.026 0-.065.03a.385.385 0 0 0-.055.05.402.402 0 0 1-.252.14.23.23 0 0 1-.161-.078c-.409.195-.782.414-1.065.58a.646.646 0 0 1 .34.11c.293-.199.807-.485 1.339-.76-.036-.058-.065-.074-.075-.074"/></g></g><g><g><path fill="#ffda00" d="M132.304 45.43c.204-.046.417-.031.612.043.28-.235.576-.451.885-.646a.524.524 0 0 1-.265-.113c-.427.205-.84.442-1.232.707"/></g></g><g><g><path fill="#ffda00" d="M132.267 45.522c-.273.126.147.247.484.126.338-.122-.265-.231-.484-.126"/></g></g><g><g><path fill="#ffda00" d="M131.641 45.308c-.313.073.009.209.243.162.234-.047-.049-.199-.243-.162"/></g></g><g><g><path fill="#ffda00" d="M136.37 45.568c.343.01.684-.056.998-.195a3.205 3.205 0 0 1-.409-.103 1.41 1.41 0 0 1-.59.298"/></g></g><g><g><path fill="#ffda00" d="M137.076 44.295c-.143.097-.29.186-.443.265.64.075 1.284.1 1.927.075.102-.129.183-.272.24-.425-.57.07-1.147.099-1.723.085"/></g></g><g><g><path fill="#ffda00" d="M137.988 44.948c.015 0 .412-.224.412-.224h-.234c-.065.07-.124.145-.178.224"/></g></g><g><g><path fill="#ffda00" d="M138.076 43.853l-.104.03c-.192.062-.368.115-.526.162.42.01.838-.051 1.237-.182a1.902 1.902 0 0 1-.619-.162.485.485 0 0 0-.37-.006 5.904 5.904 0 0 1-.748.198c.12.069.252.114.388.133.186-.052.393-.113.625-.188l.104-.03a.023.023 0 0 1 .027.012.02.02 0 0 1-.014.028"/></g></g><g><g><path fill="#ffda00" d="M139.076 42.569c.122-.05.24-.108.357-.172a1.608 1.608 0 0 0-.324-.029 1.776 1.776 0 0 1-.342.154.336.336 0 0 0-.04.074c.085.02.174.02.26 0l.084-.021"/></g></g><g><g><path fill="#ffda00" d="M139.502 42.41c-.073.039-.139.075-.205.107-.18.115-.367.22-.56.313.065.101.181.157.3.142a2.55 2.55 0 0 0 1.258-.51 2.215 2.215 0 0 1-.793-.05"/></g></g><g><g><path fill="#ffda00" d="M140.179 41.822a3.492 3.492 0 0 1-.714.356c.031.057.082.1.144.122l.229-.135a.02.02 0 0 1 .03 0 .02.02 0 0 1 .006.014c0 .005-.002.01-.005.013-.07.042-.133.083-.196.116.045.008.09.008.134 0a2.18 2.18 0 0 0 1.217-.584c-.271.085-.556.115-.839.087"/></g></g><g><g><path fill="#ffda00" d="M140.699 41.144c-.027.018-.057.032-.084.047-.14.118-.29.222-.45.31a.161.161 0 0 0 .022.09c.154-.083.3-.183.433-.297a.02.02 0 0 1 .029 0 .02.02 0 0 1 0 .03 2.452 2.452 0 0 1-.431.295c.08.054.18.067.271.034.351-.101.666-.3.906-.575-.227.053-.46.074-.693.063"/></g></g><g><g><path fill="#ffda00" d="M140.684 40.86c.02.071.076.128.147.148a5.03 5.03 0 0 0 .435-.34.023.023 0 0 1 .03 0 .023.023 0 0 1 0 .03c-.163.139-.292.24-.406.323.044.01.09.01.135 0 .222-.047.412-.19.853-.677a6.528 6.528 0 0 0-.741.107c-.138.15-.289.287-.45.412"/></g></g><g><g><path fill="#ffda00" d="M140.65 39.425a.02.02 0 0 1 0 .03 2.906 2.906 0 0 1-.192.224c0 .061.026.12.071.161.12-.143.256-.303.356-.412.018-.177 0-.39.011-.586a1.56 1.56 0 0 0-.438.77c.05-.056.104-.119.162-.187a.021.021 0 0 1 .029 0"/></g></g><g><g><path fill="#ffda00" d="M139.502 41.28c-.309.176-.175.323.084.313.365-.033.708-.192.97-.45-.314.124-.786-.017-1.054.135"/></g></g><g><g><path fill="#ffda00" d="M138.806 41.756c-.173.152-.11.323.116.323.356-.017.699-.14.985-.35-.508.048-.836-.193-1.101.034"/></g></g><g><g><path fill="#ffda00" d="M139.305 42.194c-.372.044-.864-.162-1.05-.03-.118.08-.136.253.077.308.314.087.555-.026.97-.278"/></g></g><g><g><path fill="#ffda00" d="M135.34 43.803c-.355.034-.429.5.1.56a3.844 3.844 0 0 0 1.813-.287c-.819.076-1.471-.323-1.914-.275"/></g></g><g><g><path fill="#ffda00" d="M139.528 41.008c.07.062.2-.018.347-.215.147-.197-.056-.394.5-1.058-.234.221-.45.46-.647.713-.192.255-.28.499-.208.56"/></g></g><g><g><path fill="#ffda00" d="M140.116 40.346c-.196.265.08.446.278.25.073-.075.138-.16.192-.25.174-.15.485-.457.704-.698a.013.013 0 0 0 0-.02.015.015 0 0 0-.021 0c-.192.21-.45.47-.628.634.063-.108.132-.234.207-.38a4.158 4.158 0 0 0 .448-.555.015.015 0 0 0-.004-.01.018.018 0 0 0-.021 0 4.322 4.322 0 0 1-.438.54c-.27.109-.513.274-.714.484"/></g></g><g><g><path fill="#ffda00" d="M134.438 44.281c.975.433 1.989.774 3.027 1.02.058-.29.116-.556.116-.556a11.725 11.725 0 0 1-2.954-.53c-.083.026-.19.064-.19.064"/></g></g><g><g><path fill="#ffda00" d="M137.197 43.472h-.162c.23.072.47.108.711.106a.744.744 0 0 1-.176-.118c-.123.014-.246.02-.37.018"/></g></g><g><g><path fill="#ffda00" d="M137.612 42.591c-.278.196-.13.373.103.393.409.001.81-.11 1.159-.323-.217.03-.905-.323-1.26-.073"/></g></g><g><g><path fill="#ffda00" d="M136.924 42.922c-.226.055-.485.414-.083.466.428.065.866.009 1.264-.162-.403-.044-.842-.381-1.181-.3"/></g></g><g><g><path fill="#ffda00" d="M138.815 43.018a4.509 4.509 0 0 1-.395.137 4.6 4.6 0 0 1-.751.273c.055.073.139.12.23.13h.031c.285-.052.56-.146.818-.279a.02.02 0 0 1 .027.008.022.022 0 0 1 0 .031c-.223.115-.46.2-.704.255a3.2 3.2 0 0 0 1.722-.494c-.323.071-.66.048-.97-.066"/></g></g><g><g><path fill="#ffda00" d="M136.09 43.36c-.353.078-.374.396-.074.485a3.07 3.07 0 0 0 1.67-.205c-.563 0-1.214-.354-1.596-.273"/></g></g><g><g><path fill="#ffda00" d="M136.832 43.924a2.51 2.51 0 0 1-.312.034c.177.04.357.061.538.064a1.205 1.205 0 0 1-.225-.098"/></g></g><g><g><path fill="#ffda00" d="M142.284 38.183c.192-.231.218-.428.218-1.186-.203.28-.378.578-.524.89-.11.422.113.528.307.296"/></g></g></g></g><g><g><g><g><g><path fill="#967f30" d="M16.717 113.712v4.928h4.305c.521 0 .731-.597.882-1.436h.182l-.266 4.008h-.162c-.08-.612-.216-1.34-.635-1.34h-4.305v4.867c0 .263.13.413.293.413h5.416c1.024 0 1.648-1.118 1.874-1.924h.197l-.616 3.136H13.426v-.265c.685-.248 1.037-.596 1.037-1.661v-9.975c0-1.116-.352-1.454-1.037-1.716v-.26h10.203a.449.449 0 0 0 .386-.161h.137l-.3 3.132h-.162c-.039-.557-.18-1.735-.79-1.735z"/></g></g><g><g><path fill="#967f30" d="M35.728 126.386h-8.526v-.22a1.16 1.16 0 0 0 .87-1.264v-8.49c0-.936-.279-1.203-.87-1.439v-.218h3.583v.218c-.56.222-.879.527-.879 1.438v8.428c0 .42.15.533.391.533h4.026c.706 0 1.361-.63 1.741-1.616h.152z"/></g></g><g><g><path fill="#967f30" d="M107.372 114.35a6.033 6.033 0 0 1 6.484 6.097 5.952 5.952 0 0 1-6.342 6.048 7.232 7.232 0 0 1-1.719-.238h-.01a5.273 5.273 0 0 1-3.445-4.62h-.014v-.368a3.417 3.417 0 0 1 0-.606h9.44v-.244a4.667 4.667 0 0 0-4.667-5.033 3.45 3.45 0 0 0-3.678 2.378h-.171l-.059-2.606h.162a.728.728 0 0 1 .199.1 9.205 9.205 0 0 1 3.823-.901zm144.743-2.59a.97.97 0 0 1 .898 1.05.952.952 0 0 1-.886 1.048.958.958 0 0 1-.899-1.066.927.927 0 0 1 .886-1.032zm2.007 2.988v.218c-.566.22-.882.528-.882 1.442v8.547c-.085.575.308 1.111.882 1.204v.218h-3.595v-.218c.565-.105.95-.633.876-1.204v-8.547c0-.941-.284-1.205-.876-1.442v-.218zm-9.828 6.379v3.924c-.006.533.366.997.888 1.108v.218h-3.614v-.218c.523-.103.9-.56.902-1.092v-3.472l-3.948-5.502c-.367-.484-.672-.969-1.315-1.13v-.219h3.81v.219c-.334.11-.823.323-.41.907l2.989 4.2 3.24-4.185c.422-.551.016-.829-.444-.926v-.218h3.15v.218c-.388.057-.731.28-.942.61zm-10.08-9.37a.969.969 0 0 1 .91 1.05.955.955 0 0 1-.893 1.049.958.958 0 0 1-.901-1.066.927.927 0 0 1 .885-1.032zm2.001 2.989v.218c-.56.22-.882.528-.882 1.443v8.547c-.084.574.309 1.11.882 1.203v.218h-3.588v-.218a1.08 1.08 0 0 0 .876-1.203v-8.547c0-.942-.286-1.205-.876-1.443v-.218zm-5.276 11.63h-8.532v-.217c.571-.136.947-.681.872-1.263v-8.486c0-.942-.287-1.205-.872-1.443v-.218h3.586v.218c-.564.22-.887.529-.887 1.443v8.424c0 .418.15.528.39.528h4.027c.715 0 1.361-.62 1.743-1.615h.161zm-20.44-9.968c0-.942-.311-1.223-.888-1.442v-.218h6.24c2.52 0 3.735 1.39 3.735 3.158 0 1.767-1.265 3.158-3.764 3.158l3.254 3.877c.4.516.914.933 1.502 1.218v.218h-2.715l-5.04-6.047v-.264h2.746a1.97 1.97 0 0 0 1.924-2.159 1.939 1.939 0 0 0-1.924-2.124h-2.695c-.323 0-.554.013-.554.548v8.442c0 .89.293 1.187.884 1.387v.219h-3.598v-.219c.577-.2.889-.497.889-1.387zm-5.122-4.647a.97.97 0 0 1 .899 1.05.958.958 0 0 1-.892 1.048.957.957 0 0 1-.892-1.066.93.93 0 0 1 .887-1.032zm2 2.988v.218c-.576.22-.882.528-.882 1.443v8.547a1.06 1.06 0 0 0 .882 1.203v.218h-3.586v-.218c.562-.11.942-.635.87-1.203v-8.547c0-.942-.29-1.205-.87-1.443v-.218zm-14.829-.268h.142c.11.268.419.268.622.268h8.363v1.092l-7.46 9.521h5.846c.706 0 1.346-.59 1.756-1.615h.142l-.462 2.626h-9.71v-.983l7.444-9.531h-5.617c-.484 0-.958.738-1.148 1.44h-.144zm-10.888 6.975h4.158l-2.058-4.648zm5.34 2.65l-.713-1.595h-5.105l-1.04 2.286c-.352.793.35 1.198.827 1.371v.218h-3.638v-.218c.423-.137 1.018-.42 1.603-1.657l4.104-8.941c-.058-.341-.744-.58-.925-.595v-.218h2.623l4.48 9.854a2.722 2.722 0 0 0 1.571 1.549v.218h-4.361v-.218c.394-.161 1.168-.58.856-1.36-.084-.231-.192-.456-.29-.701zm-11.632 2.28h-1.53l-9.46-10.973v9.237c-.071.682.369 1.312 1.033 1.48v.256h-3.492v-.255a1.378 1.378 0 0 0 1.05-1.481V114.42a1.454 1.454 0 0 0-1.05-1.431v-.259h3.182l8.841 10.177v-8.4a1.393 1.393 0 0 0-1.03-1.507v-.258h3.476V113a1.4 1.4 0 0 0-1.018 1.507zm-20.111 0h-8.54v-.218c.572-.135.95-.68.876-1.263v-8.486c0-.941-.285-1.205-.877-1.442v-.218h3.596v.218c-.57.22-.888.528-.888 1.442v8.425c0 .418.147.528.387.528h4.039c.704 0 1.357-.62 1.735-1.616h.161zm-12.78-14.616a.97.97 0 0 1 .905 1.05.958.958 0 0 1-.893 1.049.956.956 0 0 1-.893-1.067.926.926 0 0 1 .882-1.032zm1.997 2.989v.218c-.564.22-.879.528-.879 1.442v8.547a1.068 1.068 0 0 0 .88 1.204v.218h-3.589v-.218c.566-.105.95-.634.873-1.204v-8.547c0-.942-.28-1.205-.873-1.442v-.218zm-15.088 8.222h.162a3.985 3.985 0 0 0 4.223 2.673c1.56 0 3.31-.675 3.31-2.261 0-1.344-1.412-1.766-2.984-2.175-2.1-.544-4.415-1.122-4.415-3.48 0-2.243 2.394-3.27 4.722-3.27a5.773 5.773 0 0 1 3.132.767c.082-.03.171-.048.4-.14h.17v2.558h-.17c-.196-1.888-2.513-2.17-3.553-2.17-1.506 0-2.864.592-2.864 1.89 0 .956 1.906 1.42 2.778 1.66 2.1.55 4.635 1.344 4.635 4.076 0 2.702-2.746 3.646-5.384 3.583a6.684 6.684 0 0 1-4.139-1.362zm-1.915-8.222v.218c-.582.237-.884.517-.884 1.442v8.486a1.173 1.173 0 0 0 .884 1.263v.218h-3.596v-.218c.571-.139.952-.678.893-1.263v-3.908h-6.896v3.908a1.13 1.13 0 0 0 .888 1.263v.218h-3.599v-.218c.577-.132.962-.676.895-1.263v-8.486c0-.942-.302-1.205-.895-1.442v-.218h3.6v.218c-.558.22-.889.528-.889 1.442v3.546h6.896v-3.546c0-.925-.307-1.205-.893-1.442v-.218zm-19.937 10.704a4.684 4.684 0 0 1-1.428-.22 3.657 3.657 0 0 1-2.184-3.612h7.753a4.105 4.105 0 0 1-4.135 3.833m-10.075.667v.255h-4.21v-.255a1.337 1.337 0 0 0 1.04-1.481v-10.615h-3.243c-1.204 0-1.66.882-1.953 1.743h-.188l.281-3.047h12.337l.288 3.047h-.199c-.302-.861-.745-1.743-1.95-1.743h-3.243v10.615a1.349 1.349 0 0 0 1.041 1.481"/></g></g><g><g><g><path fill="#967f30" d="M61.363 116.23c-.354-.833-.585-.97-1.152-1.116a2.78 2.78 0 0 0-.604-.053c-.143 0-.178-.072-.178-.162 0-.124.162-.142.393-.142.833 0 1.72.037 2.27.037.388 0 1.206-.037 1.986-.037.196 0 .373.037.373.142 0 .105-.106.162-.249.162a1.159 1.159 0 0 0-.602.105.333.333 0 0 0-.162.302c.066.391.186.772.356 1.13l2.625 6.76h.053c.675-1.561 2.68-6.42 3.052-7.415a2.1 2.1 0 0 0 .142-.551c0-.162-.071-.212-.215-.267a2.374 2.374 0 0 0-.619-.07c-.144 0-.266-.054-.266-.162 0-.109.143-.143.442-.143.782 0 1.473.038 1.667.038.267 0 .994-.038 1.472-.038.195 0 .323.038.323.143 0 .105-.087.161-.249.161a1.239 1.239 0 0 0-.762.178c-.196.142-.409.371-.816 1.33-.62 1.418-1.029 2.235-1.88 4.08-.994 2.2-1.72 3.85-2.076 4.613-.391.868-.533 1.099-.745 1.099-.211 0-.337-.196-.638-.903z"/></g></g></g><g><g><path fill="#967f30" d="M77.715 125.477a4.694 4.694 0 0 1-1.428-.217 3.656 3.656 0 0 1-2.184-3.612h7.754a4.103 4.103 0 0 1-4.142 3.829zm-.17-11.113a9.189 9.189 0 0 0-3.823.902 1.052 1.052 0 0 0-.199-.1h-.161l.058 2.605h.17a3.455 3.455 0 0 1 3.676-2.378 4.665 4.665 0 0 1 4.667 5.036v.245h-9.439c-.018.2-.018.402 0 .603v.368h.011a5.276 5.276 0 0 0 3.443 4.62h.018c.56.15 1.136.23 1.715.24a5.954 5.954 0 0 0 6.34-6.047 6.033 6.033 0 0 0-6.475-6.094z"/></g></g></g></g><g><g><path fill="#967f30" d="M54.082 124.126l-1.963-7.571a1.103 1.103 0 0 1 .82-1.292l.037-.015v-.265h-3.172l-3.506 9.289-3.629-9.252-.014-.037H39.46v.265l.037.015c.505.211.996.536.807 1.342l-1.974 7.77c-.353 1.381-.796 1.565-1.187 1.725l-.063.024v.267h2.787v-.272l-.044-.01a.738.738 0 0 1-.484-.332c-.13-.37-.113-.775.05-1.13l2.18-7.961 3.701 9.666.015.037h1.363l3.727-9.692 2.147 7.93c.164.363.177.776.037 1.148a.763.763 0 0 1-.525.323l-.047.012v.274h3.392v-.266l-.055-.023c-.38-.158-.817-.339-1.242-1.969z"/></g></g></g></g></g></svg>